<?xml version="1.0" encoding="UTF-8"?>
<svg version="1.1" xmlns="http://www.w3.org/2000/svg" width="1024" height="1024">
<path d="M0 0 C2.11538851 -0.00302286 4.23077593 -0.00691302 6.34616143 -0.01159257 C12.14312414 -0.02186441 17.94002495 -0.01969276 23.73699272 -0.01541197 C29.99559753 -0.01294319 36.2541875 -0.02196097 42.51278687 -0.02944946 C54.76964607 -0.04219559 67.02647647 -0.04399592 79.28333985 -0.0416492 C89.25049092 -0.03981429 99.21763557 -0.0415803 109.18478584 -0.04587364 C110.61839274 -0.04647605 112.05199964 -0.04707725 113.48560654 -0.04767724 C115.64614577 -0.04858454 117.80668499 -0.04949321 119.96722421 -0.0504096 C140.05061344 -0.05883686 160.13400026 -0.06317656 180.21739101 -0.05900288 C181.35253046 -0.05876831 181.35253046 -0.05876831 182.51060201 -0.05852901 C186.34585 -0.05772327 190.18109799 -0.0568775 194.01634597 -0.05601571 C194.77798727 -0.05584462 195.53962858 -0.05567353 196.32434992 -0.05549726 C197.8645749 -0.0551506 199.40479989 -0.05480207 200.94502487 -0.05445167 C224.89313845 -0.04909844 248.84121519 -0.05701449 272.7893219 -0.07548523 C299.71989271 -0.09623215 326.65044069 -0.10692253 353.58101994 -0.10290974 C356.45654078 -0.10251443 359.33206162 -0.10215288 362.20758247 -0.10181236 C362.91556186 -0.10172163 363.62354124 -0.1016309 364.35297454 -0.10153742 C375.0117485 -0.10037448 385.67049932 -0.10699682 396.3292675 -0.11762428 C408.46428112 -0.12971161 420.59922807 -0.13091851 432.73424541 -0.11883412 C438.91997372 -0.11296007 445.105603 -0.11180502 451.29132462 -0.12383652 C456.96600889 -0.13474519 462.64051207 -0.131533 468.31518806 -0.11757483 C470.35625131 -0.1149415 472.39732899 -0.11725098 474.43837803 -0.1253107 C500.1067553 -0.21954661 522.68035574 3.88038454 545.2983551 16.26069641 C546.2471051 16.77761047 547.1958551 17.29452454 548.1733551 17.82710266 C575.66917277 33.5942356 595.0595999 60.9370651 603.2983551 91.26069641 C607.31802726 107.7483039 607.44806847 124.40867357 607.42533875 141.27891541 C607.42649323 143.16290008 607.42808295 145.04688452 607.43006599 146.93086851 C607.43421509 152.07027565 607.43218862 157.20966408 607.42907977 162.34907126 C607.42680745 167.90785072 607.43031462 173.46662706 607.43305969 179.02540588 C607.43749872 189.90643984 607.43654865 200.78746688 607.43364705 211.66850109 C607.43138314 220.52795226 607.43108479 229.3874015 607.43217087 238.24685287 C607.43240072 240.14277949 607.43240072 240.14277949 607.43263521 242.07700764 C607.43295497 244.64547258 607.43327918 247.21393751 607.4336078 249.78240244 C607.43637661 273.17134385 607.43350891 296.56028086 607.4282652 319.94922142 C607.42353262 341.21955234 607.42393384 362.48987726 607.4287262 383.76020813 C607.4341062 407.71824564 607.43617063 431.67627941 607.43311393 455.63431776 C607.43279543 458.19974287 607.43248106 460.76516799 607.43217087 463.33059311 C607.43201659 464.59245267 607.43186232 465.85431223 607.43170337 467.15440995 C607.43084604 475.97528704 607.43228431 484.79616197 607.43465042 493.61703873 C607.43748167 504.40867763 607.43664161 515.20030928 607.43136968 525.99194737 C607.42877505 531.48106166 607.42765365 536.97016395 607.43101883 542.45927811 C607.44227324 562.63362373 607.38546681 582.79904172 606.87229919 602.96781921 C606.85421448 603.72969987 606.83612977 604.49158052 606.81749703 605.27654846 C606.54271616 616.47278478 605.76490643 627.32159658 603.2983551 638.26069641 C603.02120667 639.54589172 602.74405823 640.83108704 602.45851135 642.15522766 C598.0653813 660.46307866 589.44077522 675.95077689 577.2983551 690.26069641 C576.55972229 691.14628235 575.82108948 692.03186829 575.06007385 692.94429016 C568.55342478 700.45196216 561.30929296 706.45755317 553.2983551 712.26069641 C552.40503479 712.90909485 551.51171448 713.55749329 550.59132385 714.22554016 C528.14070238 729.43402568 502.63400759 733.57590499 476.07685852 733.53916931 C474.39971789 733.54418596 472.72257965 733.55006569 471.04544473 733.55672204 C466.4812103 733.5723817 461.91703766 733.57594505 457.35277963 733.57737064 C452.40963797 733.58109144 447.46652916 733.59626408 442.52340698 733.60998535 C433.95854291 733.63220719 425.39369064 733.64725419 416.82880402 733.65735245 C404.37164141 733.6720433 391.91451913 733.6976215 379.45738032 733.72568373 C359.14477993 733.77113743 338.83217358 733.80773017 318.51954651 733.83882141 C298.96517316 733.86876948 279.41081557 733.90307766 259.85646057 733.9433136 C258.6595084 733.94577515 257.46255623 733.9482367 256.22933277 733.95077284 C251.41280039 733.96069589 246.59626808 733.97064984 241.77973585 733.9806448 C192.72171948 734.08238004 143.66368563 734.17956052 94.60559678 734.23851097 C84.91298733 734.25039253 75.22040334 734.26612271 65.52781253 734.2886349 C59.22782062 734.30313478 52.92782936 734.31416878 46.62782617 734.32241332 C43.10793736 734.32716336 39.5880733 734.33345457 36.06819868 734.34467816 C22.0515653 734.38611117 8.05328723 734.27091624 -5.95610046 733.83042908 C-7.80784964 733.77435692 -7.80784964 733.77435692 -9.69700789 733.717152 C-43.20635379 732.54036209 -74.41226156 719.77098708 -97.7016449 695.26069641 C-117.95154782 673.01341962 -128.90951735 645.62819777 -130.25578785 615.62102604 C-130.29790999 614.7011115 -130.34003214 613.78119695 -130.38343071 612.83340621 C-130.79954602 603.05329129 -130.84422533 593.28280597 -130.83535767 583.49542236 C-130.83723169 581.49514825 -130.83953471 579.4948745 -130.84222299 577.49460131 C-130.84827389 572.06229398 -130.84821544 566.63000219 -130.84702861 561.19769228 C-130.8468229 555.31418589 -130.85235931 549.43068428 -130.85708618 543.54718018 C-130.86535509 532.04702462 -130.86813927 520.54687419 -130.86869856 509.04671591 C-130.86917528 499.69479433 -130.87122735 490.34287448 -130.87439919 480.99095345 C-130.87529684 478.28940044 -130.87618666 475.58784743 -130.87707406 472.88629442 C-130.87729511 472.21451341 -130.87751616 471.5427324 -130.87774391 470.85059439 C-130.88388792 451.98535958 -130.88784548 433.12012534 -130.88740063 414.25488949 C-130.88738505 413.54527583 -130.88736947 412.83566216 -130.88735342 412.10454506 C-130.88727032 408.50870182 -130.88717128 404.91285858 -130.88706871 401.31701534 C-130.88704877 400.60298563 -130.88702882 399.88895591 -130.88700827 399.15328893 C-130.88696783 397.7093533 -130.88692604 396.26541766 -130.88688288 394.82148203 C-130.88626992 372.34865835 -130.89378466 349.87584976 -130.90745544 327.4030304 C-130.92284062 302.10213181 -130.93142031 276.80124313 -130.93049222 251.50033957 C-130.9304176 248.79910092 -130.93036889 246.09786226 -130.93033791 243.39662361 C-130.93032625 242.73160375 -130.9303146 242.06658388 -130.93030259 241.3814119 C-130.93027382 231.37702014 -130.93560054 221.37264225 -130.94367027 211.36825371 C-130.95279512 199.98375087 -130.95493404 188.59927279 -130.94816085 177.21476787 C-130.94490638 171.41378857 -130.94480016 165.61285673 -130.9535141 159.81188202 C-130.96142703 154.48921135 -130.95989923 149.16662538 -130.95122997 143.84395666 C-130.94970553 141.93105103 -130.95147066 140.01813892 -130.95709004 138.10524093 C-131.0659962 98.36198991 -122.55876999 64.15015015 -94.0141449 35.13569641 C-77.26982253 18.60288536 -57.25935673 7.56265163 -34.09296232 2.76292819 C-32.58490452 2.44620129 -31.08099681 2.10828984 -29.58449692 1.74080878 C-19.82730377 -0.41015951 -9.93401115 -0.0201079 0 0 Z " fill="#EBEBEB" transform="translate(273.70164489746094,144.7393035888672)"/>
<path d="M0 0 C2.11538851 -0.00302286 4.23077593 -0.00691302 6.34616143 -0.01159257 C12.14312414 -0.02186441 17.94002495 -0.01969276 23.73699272 -0.01541197 C29.99559753 -0.01294319 36.2541875 -0.02196097 42.51278687 -0.02944946 C54.76964607 -0.04219559 67.02647647 -0.04399592 79.28333985 -0.0416492 C89.25049092 -0.03981429 99.21763557 -0.0415803 109.18478584 -0.04587364 C110.61839274 -0.04647605 112.05199964 -0.04707725 113.48560654 -0.04767724 C115.64614577 -0.04858454 117.80668499 -0.04949321 119.96722421 -0.0504096 C140.05061344 -0.05883686 160.13400026 -0.06317656 180.21739101 -0.05900288 C181.35253046 -0.05876831 181.35253046 -0.05876831 182.51060201 -0.05852901 C186.34585 -0.05772327 190.18109799 -0.0568775 194.01634597 -0.05601571 C194.77798727 -0.05584462 195.53962858 -0.05567353 196.32434992 -0.05549726 C197.8645749 -0.0551506 199.40479989 -0.05480207 200.94502487 -0.05445167 C224.89313845 -0.04909844 248.84121519 -0.05701449 272.7893219 -0.07548523 C299.71989271 -0.09623215 326.65044069 -0.10692253 353.58101994 -0.10290974 C356.45654078 -0.10251443 359.33206162 -0.10215288 362.20758247 -0.10181236 C362.91556186 -0.10172163 363.62354124 -0.1016309 364.35297454 -0.10153742 C375.0117485 -0.10037448 385.67049932 -0.10699682 396.3292675 -0.11762428 C408.46428112 -0.12971161 420.59922807 -0.13091851 432.73424541 -0.11883412 C438.91997372 -0.11296007 445.105603 -0.11180502 451.29132462 -0.12383652 C456.96600889 -0.13474519 462.64051207 -0.131533 468.31518806 -0.11757483 C470.35625131 -0.1149415 472.39732899 -0.11725098 474.43837803 -0.1253107 C500.1067553 -0.21954661 522.68035574 3.88038454 545.2983551 16.26069641 C546.2471051 16.77761047 547.1958551 17.29452454 548.1733551 17.82710266 C575.66917277 33.5942356 595.0595999 60.9370651 603.2983551 91.26069641 C607.31802726 107.7483039 607.44806847 124.40867357 607.42533875 141.27891541 C607.42649323 143.16290008 607.42808295 145.04688452 607.43006599 146.93086851 C607.43421509 152.07027565 607.43218862 157.20966408 607.42907977 162.34907126 C607.42680745 167.90785072 607.43031462 173.46662706 607.43305969 179.02540588 C607.43749872 189.90643984 607.43654865 200.78746688 607.43364705 211.66850109 C607.43138314 220.52795226 607.43108479 229.3874015 607.43217087 238.24685287 C607.43240072 240.14277949 607.43240072 240.14277949 607.43263521 242.07700764 C607.43295497 244.64547258 607.43327918 247.21393751 607.4336078 249.78240244 C607.43637661 273.17134385 607.43350891 296.56028086 607.4282652 319.94922142 C607.42353262 341.21955234 607.42393384 362.48987726 607.4287262 383.76020813 C607.4341062 407.71824564 607.43617063 431.67627941 607.43311393 455.63431776 C607.43279543 458.19974287 607.43248106 460.76516799 607.43217087 463.33059311 C607.43201659 464.59245267 607.43186232 465.85431223 607.43170337 467.15440995 C607.43084604 475.97528704 607.43228431 484.79616197 607.43465042 493.61703873 C607.43748167 504.40867763 607.43664161 515.20030928 607.43136968 525.99194737 C607.42877505 531.48106166 607.42765365 536.97016395 607.43101883 542.45927811 C607.44227324 562.63362373 607.38546681 582.79904172 606.87229919 602.96781921 C606.85421448 603.72969987 606.83612977 604.49158052 606.81749703 605.27654846 C606.54271616 616.47278478 605.76490643 627.32159658 603.2983551 638.26069641 C603.02120667 639.54589172 602.74405823 640.83108704 602.45851135 642.15522766 C598.0653813 660.46307866 589.44077522 675.95077689 577.2983551 690.26069641 C576.55972229 691.14628235 575.82108948 692.03186829 575.06007385 692.94429016 C568.55342478 700.45196216 561.30929296 706.45755317 553.2983551 712.26069641 C552.40503479 712.90909485 551.51171448 713.55749329 550.59132385 714.22554016 C528.14070238 729.43402568 502.63400759 733.57590499 476.07685852 733.53916931 C474.39971789 733.54418596 472.72257965 733.55006569 471.04544473 733.55672204 C466.4812103 733.5723817 461.91703766 733.57594505 457.35277963 733.57737064 C452.40963797 733.58109144 447.46652916 733.59626408 442.52340698 733.60998535 C433.95854291 733.63220719 425.39369064 733.64725419 416.82880402 733.65735245 C404.37164141 733.6720433 391.91451913 733.6976215 379.45738032 733.72568373 C359.14477993 733.77113743 338.83217358 733.80773017 318.51954651 733.83882141 C298.96517316 733.86876948 279.41081557 733.90307766 259.85646057 733.9433136 C258.6595084 733.94577515 257.46255623 733.9482367 256.22933277 733.95077284 C251.41280039 733.96069589 246.59626808 733.97064984 241.77973585 733.9806448 C192.72171948 734.08238004 143.66368563 734.17956052 94.60559678 734.23851097 C84.91298733 734.25039253 75.22040334 734.26612271 65.52781253 734.2886349 C59.22782062 734.30313478 52.92782936 734.31416878 46.62782617 734.32241332 C43.10793736 734.32716336 39.5880733 734.33345457 36.06819868 734.34467816 C22.0515653 734.38611117 8.05328723 734.27091624 -5.95610046 733.83042908 C-7.80784964 733.77435692 -7.80784964 733.77435692 -9.69700789 733.717152 C-43.20635379 732.54036209 -74.41226156 719.77098708 -97.7016449 695.26069641 C-117.95154782 673.01341962 -128.90951735 645.62819777 -130.25578785 615.62102604 C-130.29790999 614.7011115 -130.34003214 613.78119695 -130.38343071 612.83340621 C-130.79954602 603.05329129 -130.84422533 593.28280597 -130.83535767 583.49542236 C-130.83723169 581.49514825 -130.83953471 579.4948745 -130.84222299 577.49460131 C-130.84827389 572.06229398 -130.84821544 566.63000219 -130.84702861 561.19769228 C-130.8468229 555.31418589 -130.85235931 549.43068428 -130.85708618 543.54718018 C-130.86535509 532.04702462 -130.86813927 520.54687419 -130.86869856 509.04671591 C-130.86917528 499.69479433 -130.87122735 490.34287448 -130.87439919 480.99095345 C-130.87529684 478.28940044 -130.87618666 475.58784743 -130.87707406 472.88629442 C-130.87729511 472.21451341 -130.87751616 471.5427324 -130.87774391 470.85059439 C-130.88388792 451.98535958 -130.88784548 433.12012534 -130.88740063 414.25488949 C-130.88738505 413.54527583 -130.88736947 412.83566216 -130.88735342 412.10454506 C-130.88727032 408.50870182 -130.88717128 404.91285858 -130.88706871 401.31701534 C-130.88704877 400.60298563 -130.88702882 399.88895591 -130.88700827 399.15328893 C-130.88696783 397.7093533 -130.88692604 396.26541766 -130.88688288 394.82148203 C-130.88626992 372.34865835 -130.89378466 349.87584976 -130.90745544 327.4030304 C-130.92284062 302.10213181 -130.93142031 276.80124313 -130.93049222 251.50033957 C-130.9304176 248.79910092 -130.93036889 246.09786226 -130.93033791 243.39662361 C-130.93032625 242.73160375 -130.9303146 242.06658388 -130.93030259 241.3814119 C-130.93027382 231.37702014 -130.93560054 221.37264225 -130.94367027 211.36825371 C-130.95279512 199.98375087 -130.95493404 188.59927279 -130.94816085 177.21476787 C-130.94490638 171.41378857 -130.94480016 165.61285673 -130.9535141 159.81188202 C-130.96142703 154.48921135 -130.95989923 149.16662538 -130.95122997 143.84395666 C-130.94970553 141.93105103 -130.95147066 140.01813892 -130.95709004 138.10524093 C-131.0659962 98.36198991 -122.55876999 64.15015015 -94.0141449 35.13569641 C-77.26982253 18.60288536 -57.25935673 7.56265163 -34.09296232 2.76292819 C-32.58490452 2.44620129 -31.08099681 2.10828984 -29.58449692 1.74080878 C-19.82730377 -0.41015951 -9.93401115 -0.0201079 0 0 Z M-58.7016449 51.26069641 C-59.53437927 51.83304016 -60.36711365 52.40538391 -61.2250824 52.99507141 C-79.04489234 66.1491267 -90.46312427 88.18249172 -94.27093458 109.6673286 C-95.23170259 117.68290823 -94.97485399 125.78529676 -94.95561218 133.84654236 C-94.95791838 135.94914622 -94.96109597 138.05174927 -94.96506667 140.15435064 C-94.97340131 145.91554536 -94.96929542 151.67667366 -94.96309423 157.4378686 C-94.95856538 163.65740562 -94.96555562 169.8769313 -94.97105408 176.09646606 C-94.97943123 187.57008706 -94.97870851 199.04367851 -94.97323114 210.51729934 C-94.9681962 221.11638211 -94.96688842 231.71545714 -94.96927643 242.31454086 C-94.9694292 243.01812912 -94.96958197 243.72171737 -94.96973937 244.44662648 C-94.97036206 247.30283703 -94.97099886 250.15904758 -94.9716589 253.01525812 C-94.97777377 279.79587501 -94.97223469 306.57647845 -94.9614651 333.35709326 C-94.95197217 357.14397859 -94.95282525 380.93084251 -94.96238708 404.71772766 C-94.97309823 431.45298827 -94.97734214 458.18823701 -94.97116256 484.92349946 C-94.97052114 487.77382747 -94.96989545 490.62415548 -94.96927643 493.47448349 C-94.96911827 494.17628877 -94.96896012 494.87809406 -94.96879717 495.60116617 C-94.96652321 506.19432039 -94.9691809 516.78746602 -94.97423553 527.38061905 C-94.97995413 539.42517426 -94.9783316 551.46969866 -94.96767405 563.51425292 C-94.96241525 569.66011761 -94.96036423 575.80593883 -94.96697235 581.95180321 C-94.97292939 587.57715135 -94.96966065 593.20241568 -94.95901725 598.82775621 C-94.95678222 600.86323945 -94.9579218 602.89872977 -94.96276882 604.93420847 C-94.96885253 607.70115651 -94.96260983 610.46781764 -94.95332718 613.23475075 C-94.95800951 614.02457513 -94.96269184 614.81439952 -94.96751606 615.62815797 C-94.93108797 621.06298741 -94.05131134 626.00524416 -92.7016449 631.26069641 C-92.52485919 631.98292066 -92.34807349 632.7051449 -92.16593064 633.44925473 C-87.67055758 651.70229334 -78.65155941 667.48360548 -63.7016449 679.26069641 C-62.50281677 680.23136047 -62.50281677 680.23136047 -61.2797699 681.22163391 C-46.51148947 692.62554277 -29.46136607 698.43306655 -10.81805992 698.39212418 C-9.94267694 698.39417681 -9.06729397 698.39622944 -8.16538423 698.39834428 C-5.22957077 698.40400259 -2.2938044 698.40255847 0.64201355 698.40113831 C2.76718747 698.40372261 4.8923609 698.40673595 7.01753366 698.41014171 C12.85983475 698.41820725 18.70212355 698.42000103 24.54442954 698.42073917 C30.84454919 698.42259049 37.14466247 698.4301382 43.44477844 698.43687439 C57.9399808 698.45116293 72.43517994 698.45698373 86.93038802 698.46156633 C94.09581501 698.4639036 101.2612412 698.46750639 108.42666756 698.47126171 C132.96239527 698.48409572 157.49812254 698.49481523 182.03385353 698.49826431 C183.57352146 698.49848594 185.11318939 698.49870773 186.65285733 698.49892966 C188.19620631 698.4991503 189.73955529 698.49937079 191.28290427 698.49959111 C194.37903762 698.50003366 197.47517097 698.50048078 200.57130432 698.50093079 C201.72279246 698.50109487 201.72279246 698.50109487 202.89754298 698.50126227 C227.7868416 698.50489261 252.67611108 698.52081254 277.56539855 698.54412115 C303.88989802 698.56872868 330.21438084 698.58243757 356.53889215 698.58363223 C359.42979646 698.58380368 362.32070077 698.58401911 365.21160507 698.58426666 C365.92340872 698.58432243 366.63521236 698.5843782 367.36858582 698.58443566 C378.81282271 698.58558527 390.25702966 698.59659951 401.70125644 698.61115372 C413.20853261 698.62553484 424.71575652 698.6284945 436.22304185 698.62071374 C442.45445859 698.61680728 448.68577475 698.61773683 454.91717911 698.63177109 C460.62557674 698.64450978 466.33379821 698.64331258 472.0421956 698.63118038 C474.10344393 698.62922335 476.16470473 698.63230202 478.22593553 698.64102474 C504.59145435 698.74550332 527.40039207 691.69307537 546.70851135 672.91694641 C566.15993194 652.36450201 571.93122252 628.12022128 571.81974792 600.83752441 C571.82580096 598.7169535 571.83358492 596.59638694 571.84293306 594.47582799 C571.86338169 588.69236383 571.85915815 582.90914917 571.85057187 577.12566507 C571.84561706 570.87123572 571.86369077 564.61686488 571.87864685 558.36245728 C571.90408836 546.12644862 571.90774634 533.89055555 571.90304632 521.65453025 C571.89937171 511.70467793 571.90291852 501.75485132 571.91149521 491.80500221 C571.91270004 490.37221647 571.91390244 488.93943072 571.91510241 487.50664497 C571.91691705 485.34720909 571.91873439 483.18777322 571.92056712 481.02833736 C571.93740993 460.96851445 571.94610876 440.90870118 571.93775368 420.84887218 C571.93744093 420.09370865 571.93712817 419.33854512 571.93680594 418.56049784 C571.93519454 414.73359479 571.93350299 410.90669177 571.93177934 407.07978877 C571.93143716 406.3198415 571.93109499 405.55989424 571.93074244 404.77691827 C571.93004913 403.24012328 571.92935207 401.7033283 571.92865127 400.16653331 C571.91793855 376.25767711 571.93379944 352.34896846 571.97071838 328.44013977 C572.01221134 301.53807717 572.03359387 274.63610594 572.02556741 247.73400956 C572.0247768 244.86195236 572.02405369 241.98989514 572.02337265 239.11783791 C572.02310046 238.05718733 572.02310046 238.05718733 572.02282276 236.97510948 C572.0204974 226.33216517 572.03373691 215.6893136 572.05499649 205.04639244 C572.07916882 192.93342468 572.081587 180.82071601 572.05741616 168.70772692 C572.04566831 162.53400253 572.04335668 156.36067495 572.06742096 150.18697739 C572.08923922 144.52344519 572.0828146 138.86063874 572.05489759 133.19713978 C572.04963115 131.16029373 572.05424949 129.12338987 572.07036932 127.0866008 C572.23876553 104.20099923 566.3402097 83.91285116 551.2983551 66.26069641 C550.69378479 65.5117511 550.08921448 64.76280579 549.46632385 63.99116516 C535.94898953 47.83093045 514.96800887 38.0810369 494.2983551 35.26069641 C491.39082956 35.12127497 488.48789148 35.12110664 485.57743263 35.12647533 C484.70747904 35.1241231 483.83752544 35.12177087 482.94120961 35.11934736 C480.01781595 35.11267535 477.09446692 35.11311505 474.17106628 35.11352539 C472.05714296 35.11022564 469.94322027 35.10649984 467.82929838 35.10238391 C462.01333441 35.09236833 456.19738077 35.08864782 450.38140941 35.0859946 C444.11120716 35.08209022 437.84101307 35.07251195 431.57081604 35.06378174 C417.14036678 35.04495481 402.70991853 35.03476159 388.27946005 35.02632106 C381.14516926 35.02211219 374.01087931 35.01689049 366.87658922 35.01163653 C342.4453039 34.99374652 318.01401833 34.97875188 293.58272743 34.97131634 C292.04927646 34.97084158 290.51582548 34.9703657 288.98237451 34.96988868 C287.84171618 34.96953411 287.84171618 34.96953411 286.67801425 34.96917238 C282.82538698 34.96797121 278.97275971 34.96675575 275.12013245 34.9655304 C273.97329292 34.96517017 273.97329292 34.96517017 272.80328493 34.96480267 C248.0252667 34.95691316 223.2472964 34.93348842 198.46929909 34.90097445 C172.26042699 34.86664581 146.05158292 34.84696234 119.84268796 34.8436721 C116.96322909 34.84325457 114.08377023 34.84277501 111.20431137 34.84224892 C110.14083901 34.84206413 110.14083901 34.84206413 109.05588235 34.84187561 C97.66517159 34.83954726 86.27451665 34.82390768 74.88382575 34.80340707 C63.42453485 34.78311093 51.96533548 34.778022 40.50602527 34.7871777 C34.3025667 34.79171911 28.0992887 34.7898451 21.89585495 34.77041626 C16.20942144 34.75276088 10.52329991 34.75380189 4.83686297 34.76931355 C2.78696928 34.77168599 0.73705386 34.76738517 -1.31280665 34.7554849 C-22.58552407 34.63970389 -40.98883929 38.82515737 -58.7016449 51.26069641 Z " fill="#111111" transform="translate(273.70164489746094,144.7393035888672)"/>
<path d="M0 0 C0.99515625 0.4125 1.9903125 0.825 3.015625 1.25 C19.43610558 8.66026816 30.44706945 21.5290329 37.80859375 37.69921875 C43.71914144 54.07434267 42.59611807 72.07456577 36 88 C35.61585938 88.94101562 35.23171875 89.88203125 34.8359375 90.8515625 C31.88311087 97.33974618 27.66735415 102.65425135 23 108 C22.21882812 108.94166016 22.21882812 108.94166016 21.421875 109.90234375 C16.06581321 115.86704892 9.06767591 119.44995615 2 123 C0.46279297 123.80050781 0.46279297 123.80050781 -1.10546875 124.6171875 C-14.65892501 130.57734094 -34.28948357 130.72017163 -48.12109375 125.39453125 C-67.00635909 116.24658047 -80.49658065 104.03353665 -88 84 C-90.58037845 76.31795158 -91.51949044 69.21147014 -91.4375 61.125 C-91.42992676 60.0728833 -91.42235352 59.0207666 -91.41455078 57.93676758 C-91.03802749 40.15360002 -83.32896263 25.91277356 -71.203125 13.1015625 C-52.83034654 -4.25050605 -23.35941288 -10.55792673 0 0 Z " fill="#0F0E0F" transform="translate(537,450)"/>
<path d="M0 0 C2.31 0.33 4.62 0.66 7 1 C-0.33789588 21.60080085 -13.99349223 38.55883938 -33.125 49.3203125 C-35 50 -35 50 -38 49 C-35 47 -35 47 -32 47 C-32 46.34 -32 45.68 -32 45 C-29.525 44.505 -29.525 44.505 -27 44 C-27 43.34 -27 42.68 -27 42 C-27.66 41.67 -28.32 41.34 -29 41 C-28.38125 40.7525 -27.7625 40.505 -27.125 40.25 C-24.84998472 39.17603789 -24.84998472 39.17603789 -24 36.9375 C-23.67 36.298125 -23.34 35.65875 -23 35 C-21.0625 34.4375 -21.0625 34.4375 -19 34 C-16.5821057 32.0298639 -16.01497436 31.04492309 -15 28 C-14.67 27.34 -14.34 26.68 -14 26 C-13.0409375 25.7834375 -13.0409375 25.7834375 -12.0625 25.5625 C-9.61789145 25.13834965 -9.61789145 25.13834965 -8 22 C-7.34 21.01 -6.68 20.02 -6 19 C-6 18.34 -6 17.68 -6 17 C-5.360625 16.773125 -4.72125 16.54625 -4.0625 16.3125 C-1.72806339 15.14749104 -1.72806339 15.14749104 -1.25 12.375 C-1.1675 11.59125 -1.085 10.8075 -1 10 C-0.34 10 0.32 10 1 10 C0.7525 8.3603125 0.7525 8.3603125 0.5 6.6875 C0 3 0 3 0 0 Z " fill="#C6C6C6" transform="translate(833,784)"/>
<path d="M0 0 C1.32 0.66 2.64 1.32 4 2 C0.61266044 6.36506328 -2.83223009 9.65827494 -7.4375 12.75 C-7.98470703 13.13542969 -8.53191406 13.52085937 -9.09570312 13.91796875 C-12.59726379 16.31311912 -15.92486956 17.84445773 -20 19 C-20.33 18.34 -20.66 17.68 -21 17 C-19.02 16.67 -17.04 16.34 -15 16 C-15 15.34 -15 14.68 -15 14 C-13.35 13.67 -11.7 13.34 -10 13 C-10 12.34 -10 11.68 -10 11 C-10.66 10.67 -11.32 10.34 -12 10 C-11.38125 9.7525 -10.7625 9.505 -10.125 9.25 C-7.84998472 8.17603789 -7.84998472 8.17603789 -7 5.9375 C-6.67 5.298125 -6.34 4.65875 -6 4 C-4.67696283 3.6278958 -3.34262065 3.29369827 -2 3 C-1.34 2.01 -0.68 1.02 0 0 Z " fill="#BDBDBD" transform="translate(816,815)"/>
<path d="M0 0 C0.66 1.32 1.32 2.64 2 4 C0.77801556 5.58888299 -0.45294475 7.17086464 -1.6875 8.75 C-2.37199219 9.63171875 -3.05648437 10.5134375 -3.76171875 11.421875 C-5.98461943 13.98228416 -8.29250406 15.97056346 -11 18 C-11 17.34 -11 16.68 -11 16 C-11.66 15.67 -12.32 15.34 -13 15 C-12.3503125 14.32453125 -11.700625 13.6490625 -11.03125 12.953125 C-10.1959375 12.06109375 -9.360625 11.1690625 -8.5 10.25 C-7.6646875 9.36828125 -6.829375 8.4865625 -5.96875 7.578125 C-3.59539093 5.01080011 -3.59539093 5.01080011 -4 1 C-2.68 0.67 -1.36 0.34 0 0 Z " fill="#201F20" transform="translate(566,544)"/>
<path d="M0 0 C1.35073458 0.63066498 2.68819655 1.29190825 4 2 C1.58660204 3.00858422 -0.83018675 4.00702673 -3.25 5 C-3.93191406 5.28617188 -4.61382813 5.57234375 -5.31640625 5.8671875 C-8.81415735 7.29345494 -11.16900189 8 -15 8 C-14.67 7.01 -14.34 6.02 -14 5 C-12.02 5.495 -12.02 5.495 -10 6 C-10.33 5.01 -10.66 4.02 -11 3 C-7.17571334 0.30050354 -4.67460102 -0.49729798 0 0 Z " fill="#C3C3C3" transform="translate(792,833)"/>
<path d="M0 0 C1.34320982 4.02962945 0.02920742 6.71918092 -1.3125 10.5625 C-1.53873047 11.24763672 -1.76496094 11.93277344 -1.99804688 12.63867188 C-3.01597015 15.62790479 -3.73901487 17.73901487 -6 20 C-6.97798721 16.20431539 -6.92653069 13.4994001 -6.0625 9.6875 C-5.86785156 8.80449219 -5.67320312 7.92148437 -5.47265625 7.01171875 C-5.31667969 6.34785156 -5.16070313 5.68398438 -5 5 C-4.01 5 -3.02 5 -2 5 C-1.34 3.35 -0.68 1.7 0 0 Z M-3 6 C-2 8 -2 8 -2 8 Z " fill="#212021" transform="translate(576,523)"/>
<path d="M0 0 C0.640625 1.83203125 0.640625 1.83203125 1 4 C-1.53816609 7.03169839 -3.22508911 8.74169637 -7 10 C-9.6875 9.0625 -9.6875 9.0625 -12 8 C-8.21087559 5.00027651 -4.11168168 2.52489191 0 0 Z " fill="#DFDFDE" transform="translate(551,565)"/>
<path d="M0 0 C0.804375 0.33 1.60875 0.66 2.4375 1 C4.69681125 2.06059041 4.69681125 2.06059041 6 2 C6.99 2.33 7.98 2.66 9 3 C7.35616456 4.16948002 5.70987731 5.3355145 4.0625 6.5 C2.68771484 7.47453125 2.68771484 7.47453125 1.28515625 8.46875 C-1 10 -1 10 -2 10 C-2.22036864 6.14354879 -1.60355101 3.50776784 0 0 Z " fill="#1C1C1C" transform="translate(546,560)"/>
<path d="M0 0 C2.31 0.33 4.62 0.66 7 1 C6.57692877 2.31722179 6.13602514 3.62872664 5.6875 4.9375 C5.44386719 5.66839844 5.20023438 6.39929688 4.94921875 7.15234375 C4 9 4 9 1 10 C0 3.375 0 3.375 0 0 Z " fill="#CDCDCD" transform="translate(833,784)"/>
<path d="M0 0 C0.33 0.66 0.66 1.32 1 2 C2.98 1.67 4.96 1.34 7 1 C6.81640625 2.890625 6.81640625 2.890625 6 5 C3.71484375 6.046875 3.71484375 6.046875 0.9375 6.75 C-0.44115234 7.11351562 -0.44115234 7.11351562 -1.84765625 7.484375 C-2.55792969 7.65453125 -3.26820313 7.8246875 -4 8 C-4 5.66666667 -4 3.33333333 -4 1 C-2.68 1.33 -1.36 1.66 0 2 C0 1.34 0 0.68 0 0 Z " fill="#1F1E1E" transform="translate(533,568)"/>
<path d="M0 0 C2.91691525 -0.05401695 5.83282724 -0.09368066 8.75 -0.125 C9.575 -0.14175781 10.4 -0.15851562 11.25 -0.17578125 C12.04921875 -0.18222656 12.8484375 -0.18867187 13.671875 -0.1953125 C14.4050293 -0.20578613 15.13818359 -0.21625977 15.89355469 -0.22705078 C18.29896076 0.03222456 19.91251494 0.80774075 22 2 C20.375 3.5625 20.375 3.5625 18 5 C14.75 4.6875 14.75 4.6875 12 4 C12 3.34 12 2.68 12 2 C8.04 1.67 4.08 1.34 0 1 C0 0.67 0 0.34 0 0 Z " fill="#C0C0C0" transform="translate(505,578)"/>
<path d="M0 0 C3.25524265 3.02272532 5.61820737 6.25718301 8 10 C2.57306338 9.51760563 2.57306338 9.51760563 0.0625 7.25 C-1.27773867 4.41184751 -0.90110078 2.94905709 0 0 Z " fill="#D1D1D1" transform="translate(456,548)"/>
<path d="M0 0 C2.45526122 2.45526122 2.41457598 3.60629818 2.75 7 C2.84796875 7.886875 2.9459375 8.77375 3.046875 9.6875 C3 12 3 12 1 14 C0.65725594 12.33524314 0.32635698 10.66804677 0 9 C-0.20625 7.96875 -0.4125 6.9375 -0.625 5.875 C-1 3 -1 3 0 0 Z " fill="#1F1F1F" transform="translate(180,774)"/>
<path d="M0 0 C2.50298434 2.93828597 3.46930939 5.17902761 4 9 C2.02 9.99 2.02 9.99 0 11 C-0.66 8.03 -1.32 5.06 -2 2 C-1.34 2 -0.68 2 0 2 C0 1.34 0 0.68 0 0 Z " fill="#2C2B2E" transform="translate(572,484)"/>
<path d="M0 0 C0.99 0.33 1.98 0.66 3 1 C1.89718873 2.27200971 0.79269231 3.54255853 -0.3125 4.8125 C-1.23482422 5.87404297 -1.23482422 5.87404297 -2.17578125 6.95703125 C-3.73334335 8.70136739 -5.32658875 10.36778041 -7 12 C-7 10.68 -7 9.36 -7 8 C-6.34 8 -5.68 8 -5 8 C-4.9175 7.236875 -4.835 6.47375 -4.75 5.6875 C-4 3 -4 3 -2.125 1.125 C-1.42375 0.75375 -0.7225 0.3825 0 0 Z " fill="#DFDFDF" transform="translate(463,463)"/>
<path d="M0 0 C0.33 0 0.66 0 1 0 C1 6.6 1 13.2 1 20 C0.67 20 0.34 20 0 20 C0 16.04 0 12.08 0 8 C-0.66 8 -1.32 8 -2 8 C-1.125 1.125 -1.125 1.125 0 0 Z " fill="#CCCCCC" transform="translate(844,711)"/>
<path d="M0 0 C0 0.99 0 1.98 0 3 C-6.75 7 -6.75 7 -9 7 C-8.3125 4.625 -8.3125 4.625 -7 2 C-4.52858057 0.7025048 -2.79207427 0 0 0 Z " fill="#E3E3E3" transform="translate(484,449)"/>
<path d="M0 0 C3.94727588 -0.17942163 6.5980513 -0.09350689 10 2 C7.08291076 3.98362069 5.87619096 3.9876191 2.25 3.625 C1.1775 3.41875 0.105 3.2125 -1 3 C-0.67 2.01 -0.34 1.02 0 0 Z " fill="#C9C9C9" transform="translate(786,833)"/>
<path d="M0 0 C0.66 0 1.32 0 2 0 C3.65 3.3 5.3 6.6 7 10 C6.01 9.67 5.02 9.34 4 9 C4 8.01 4 7.02 4 6 C2.68 6.33 1.36 6.66 0 7 C0 4.69 0 2.38 0 0 Z " fill="#242424" transform="translate(186,795)"/>
<path d="M0 0 C0.66 0.33 1.32 0.66 2 1 C0.35 4.3 -1.3 7.6 -3 11 C-3.99 10.67 -4.98 10.34 -6 10 C-5.67 8.02 -5.34 6.04 -5 4 C-4.67 4.66 -4.34 5.32 -4 6 C-3.34 6 -2.68 6 -2 6 C-1.855625 5.195625 -1.71125 4.39125 -1.5625 3.5625 C-1 1 -1 1 0 0 Z " fill="#E2E2E2" transform="translate(454,475)"/>
<path d="M0 0 C3 1 3 1 4.6875 3.9375 C6 7 6 7 6 9 C5.34 9 4.68 9 4 9 C2.66666667 7.66666667 1.33333333 6.33333333 0 5 C0 4.34 0 3.68 0 3 C-0.66 2.67 -1.32 2.34 -2 2 C-1.34 1.34 -0.68 0.68 0 0 Z " fill="#060606" transform="translate(465,552)"/>
<path d="M0 0 C0 1.32 0 2.64 0 4 C-5.75 3.25 -5.75 3.25 -8 1 C-3.375 -1.125 -3.375 -1.125 0 0 Z " fill="#D3D3D3" transform="translate(239,835)"/>
<path d="M0 0 C1.32 0.66 2.64 1.32 4 2 C2.35 3.98 0.7 5.96 -1 8 C-1.66 7.34 -2.32 6.68 -3 6 C-1.125 1.125 -1.125 1.125 0 0 Z " fill="#BABABA" transform="translate(816,815)"/>
<path d="M0 0 C0.66 0.66 1.32 1.32 2 2 C1.01 2.33 0.02 2.66 -1 3 C-1.6837045 4.32467746 -2.34964186 5.65863633 -3 7 C-3.99 7.66 -4.98 8.32 -6 9 C-6 7.35 -6 5.7 -6 4 C-4.02 3.34 -2.04 2.68 0 2 C0 1.34 0 0.68 0 0 Z " fill="#212121" transform="translate(206,201)"/>
<path d="M0 0 C2.64 0.33 5.28 0.66 8 1 C8.66 2.65 9.32 4.3 10 6 C6.00499382 4.6302836 3.19990508 2.74277578 0 0 Z " fill="#D8D8D8" transform="translate(215,827)"/>
<path d="M0 0 C1.32 0.33 2.64 0.66 4 1 C3.67 2.32 3.34 3.64 3 5 C1.68 5 0.36 5 -1 5 C-1 5.66 -1 6.32 -1 7 C-1.66 6.67 -2.32 6.34 -3 6 C-2.01 4.02 -1.02 2.04 0 0 Z " fill="#D0D0D0" transform="translate(810,819)"/>
<path d="M0 0 C2.99332739 0.9977758 3.94766315 1.7522025 6 4 C5.34 5.32 4.68 6.64 4 8 C2 6.75 2 6.75 0 5 C0 3.33333333 0 1.66666667 0 0 Z " fill="#E3E3E3" transform="translate(210,819)"/>
<path d="M0 0 C0.66 0 1.32 0 2 0 C1.32829194 3.8063457 0.27253436 7.35206816 -1 11 C-1.66 11 -2.32 11 -3 11 C-2.69217504 9.35328588 -2.37860766 7.70764424 -2.0625 6.0625 C-1.88847656 5.14597656 -1.71445312 4.22945312 -1.53515625 3.28515625 C-1 1 -1 1 0 0 Z " fill="#1D1D1D" transform="translate(843,775)"/>
<path d="M0 0 C2.64 0 5.28 0 8 0 C7.01 0.495 7.01 0.495 6 1 C6 1.66 6 2.32 6 3 C6.99 3.33 7.98 3.66 9 4 C6.69 4.33 4.38 4.66 2 5 C2.33 4.01 2.66 3.02 3 2 C2.01 1.34 1.02 0.68 0 0 Z " fill="#151515" transform="translate(775,841)"/>
<path d="M0 0 C3 2 3 2 3.8125 4 C3.874375 4.66 3.93625 5.32 4 6 C3.34 6.66 2.68 7.32 2 8 C0.68 6.02 -0.64 4.04 -2 2 C-1.34 2 -0.68 2 0 2 C0 1.34 0 0.68 0 0 Z " fill="#E3E3E3" transform="translate(196,804)"/>
<path d="M0 0 C0.33 0.99 0.66 1.98 1 3 C1.66 3 2.32 3 3 3 C3 5.31 3 7.62 3 10 C2.34 10 1.68 10 1 10 C-0.60725635 6.78548731 -0.05748185 3.56387464 0 0 Z " fill="#CCCCCC" transform="translate(842,733)"/>
<path d="M0 0 C2.02045442 0.60183749 4.02111039 1.27306096 6 2 C6.33 2.66 6.66 3.32 7 4 C5.35 3.67 3.7 3.34 2 3 C2 3.66 2 4.32 2 5 C1.34 5 0.68 5 0 5 C-0.5625 3.0625 -0.5625 3.0625 -1 1 C-0.67 0.67 -0.34 0.34 0 0 Z " fill="#DEDEDE" transform="translate(473,567)"/>
<path d="M0 0 C3.63 0.66 7.26 1.32 11 2 C11 2.66 11 3.32 11 4 C7.37 3.67 3.74 3.34 0 3 C0 2.01 0 1.02 0 0 Z " fill="#080808" transform="translate(767,177)"/>
<path d="M0 0 C2.64 1.98 5.28 3.96 8 6 C6 7 6 7 4 6.9375 C2 6 2 6 0.75 2.9375 C0.5025 1.968125 0.255 0.99875 0 0 Z " fill="#2B2B2B" transform="translate(207,821)"/>
<path d="M0 0 C0.33 1.32 0.66 2.64 1 4 C-0.65 5.32 -2.3 6.64 -4 8 C-4 4.09161134 -2.49432124 2.88405893 0 0 Z " fill="#1E1E1E" transform="translate(825,811)"/>
<path d="M0 0 C0.99 0.33 1.98 0.66 3 1 C0.69 2.65 -1.62 4.3 -4 6 C-4.66 5.67 -5.32 5.34 -6 5 C-6 4.34 -6 3.68 -6 3 C-4.02 2.67 -2.04 2.34 0 2 C0 1.34 0 0.68 0 0 Z " fill="#313131" transform="translate(552,562)"/>
<path d="M0 0 C0.33 0.99 0.66 1.98 1 3 C0.34 3 -0.32 3 -1 3 C-0.67 2.01 -0.34 1.02 0 0 Z M-4 1 C-3.67 1.66 -3.34 2.32 -3 3 C-2.34 3.33 -1.68 3.66 -1 4 C-2.98 4.99 -2.98 4.99 -5 6 C-5.33 4.68 -5.66 3.36 -6 2 C-5.34 1.67 -4.68 1.34 -4 1 Z " fill="#F2F2F2" transform="translate(455,472)"/>
<path d="M0 0 C2.97 0.33 5.94 0.66 9 1 C9 1.33 9 1.66 9 2 C5.7 2.33 2.4 2.66 -1 3 C-0.67 2.01 -0.34 1.02 0 0 Z " fill="#1A1A1A" transform="translate(245,179)"/>
<path d="" fill="#FFFFFF" transform="translate(0,0)"/>
</svg>
