<?xml version="1.0" encoding="UTF-8"?>
<svg version="1.1" xmlns="http://www.w3.org/2000/svg" width="1024" height="1024">
<path d="M0 0 C2.09919004 -0.00302415 4.19837899 -0.00691496 6.297566 -0.01159257 C12.0405427 -0.02184771 17.78345681 -0.01969704 23.52643859 -0.01541197 C29.73051298 -0.01294015 35.93457247 -0.02196473 42.13864136 -0.02944946 C54.28493832 -0.04218709 66.4312062 -0.04399697 78.57750737 -0.0416492 C88.45592066 -0.03981331 98.33432747 -0.04158236 108.21273994 -0.04587364 C109.63427627 -0.04647606 111.05581259 -0.04707726 112.47734891 -0.04767724 C114.61977236 -0.04858455 116.76219582 -0.04949322 118.90461926 -0.0504096 C138.81582261 -0.05883508 158.72702353 -0.06317778 178.63822842 -0.05900288 C179.76329699 -0.05876831 179.76329699 -0.05876831 180.91109423 -0.05852901 C184.71219845 -0.05772329 188.51330266 -0.05687751 192.31440686 -0.05601571 C193.06924933 -0.05584462 193.82409181 -0.05567353 194.60180829 -0.05549726 C196.12828371 -0.0551506 197.65475914 -0.05480207 199.18123456 -0.05445167 C222.91486953 -0.0490986 246.64846731 -0.05701476 270.38209534 -0.07548523 C297.07977511 -0.09623837 323.77743184 -0.10692137 350.47512013 -0.10290974 C353.32649266 -0.10251444 356.1778652 -0.10215288 359.02923775 -0.10181236 C360.08226615 -0.10167627 360.08226615 -0.10167627 361.15656785 -0.10153742 C371.7192304 -0.10037515 382.28186958 -0.10699164 392.84452629 -0.11762428 C404.87183567 -0.12971933 416.89907981 -0.13091006 428.92639457 -0.11883412 C435.05567744 -0.11296539 441.18486043 -0.1117901 447.31413651 -0.12383652 C452.93950149 -0.13476338 458.56468402 -0.13151183 464.19004072 -0.11757483 C466.21089148 -0.11494644 468.23175687 -0.11723503 470.25259321 -0.1253107 C487.48420601 -0.18931952 505.68218023 0.41457077 522.03565979 6.38569641 C522.88837463 6.68500061 523.74108948 6.98430481 524.61964417 7.29267883 C551.13905396 16.96100796 574.19597662 35.64311724 588.22315979 60.26069641 C588.58345276 60.88911438 588.94374573 61.51753235 589.31495667 62.16499329 C603.79995618 87.96558013 605.38811705 115.096386 605.35014343 144.01777649 C605.3512983 145.95741238 605.35288827 147.89704805 605.35487068 149.83668327 C605.35901404 155.12015624 605.35699603 160.40361096 605.35388446 165.68708396 C605.35160997 171.40374606 605.35512021 177.12040516 605.35786438 182.83706665 C605.36229988 194.01994033 605.36135529 205.20280728 605.35845174 216.38568121 C605.35618807 225.4830786 605.35588936 234.58047411 605.35697556 243.6778717 C605.3572054 245.62438232 605.3572054 245.62438232 605.3574399 247.61021638 C605.35775965 250.24699402 605.35808386 252.88377166 605.35841249 255.5205493 C605.36117989 279.51765274 605.35831508 303.51475267 605.35306989 327.51185554 C605.34832927 349.3664516 605.34874563 371.22104182 605.35353088 393.07563782 C605.35890008 417.67887878 605.36098194 442.28211638 605.35791862 466.88535786 C605.3576001 469.51457024 605.35728573 472.14378262 605.35697556 474.772995 C605.35682128 476.06635834 605.356667 477.35972168 605.35650805 478.69227785 C605.3556481 487.76477763 605.3570946 496.83727532 605.35945511 505.90977478 C605.36227396 516.98680514 605.36147132 528.06382843 605.35617436 539.14085799 C605.35356468 544.78241954 605.35248533 550.42396934 605.35582352 556.06553078 C605.37672032 594.98154759 605.37672032 594.98154759 604.82054138 609.90864563 C604.78756616 610.83080431 604.75459093 611.75296299 604.72061646 612.70306587 C603.01339531 649.91779694 587.36408885 680.26855287 560.37940979 705.35884094 C533.82716031 728.77845411 500.74608824 733.41800435 466.78053284 733.40113831 C464.69330605 733.40372481 462.60607976 733.40673877 460.51885414 733.41014171 C454.79978825 733.41818129 449.08073493 733.41999958 443.36166406 733.42073917 C437.1869271 733.42259502 431.01219659 733.43014498 424.83746338 733.43687439 C410.6402929 733.45114296 396.44312657 733.45698125 382.24595064 733.46156633 C375.2231014 733.46390612 368.20025298 733.46750918 361.17740437 733.47126171 C337.11506112 733.48409339 313.05271831 733.49481316 288.9903717 733.49826431 C287.48136878 733.49848594 285.97236586 733.49870773 284.46336293 733.49892966 C282.95082172 733.4991503 281.4382805 733.49937078 279.92573929 733.49959111 C276.89157867 733.50003365 273.85741806 733.50048077 270.82325745 733.50093079 C270.07096837 733.50104018 269.3186793 733.50114957 268.54359359 733.50126227 C244.15948184 733.5048916 219.77539985 733.52080893 195.3912995 733.54412115 C169.58192329 733.56875068 143.77256407 733.58243858 117.96317577 733.58363223 C115.12671089 733.58380367 112.29024601 733.58401909 109.45378113 733.58426666 C108.75541638 733.58432243 108.05705162 733.5843782 107.3375243 733.58443566 C96.12900983 733.58558333 84.92052605 733.59658097 73.71202192 733.61115372 C62.4336574 733.6255631 51.15533138 733.62847945 39.87695664 733.62071374 C33.77438493 733.61681748 27.67191588 733.6176868 21.56935692 733.63177109 C15.97182932 733.64457115 10.37448091 733.64325919 4.77695334 733.63118038 C2.7628238 733.62923393 0.74868129 733.63225254 -1.26543009 733.64102474 C-23.85938368 733.73312016 -45.46575653 730.73180594 -65.77684021 720.26069641 C-66.87512146 719.6973761 -67.97340271 719.13405579 -69.10496521 718.55366516 C-76.82278028 714.44256595 -83.40510353 709.57752085 -89.93699646 703.77632141 C-91.70719005 702.20822695 -93.51876487 700.68426093 -95.38621521 699.23335266 C-117.28776653 681.16099414 -129.02704667 649.58032722 -131.77684021 622.26069641 C-132.06323897 617.98975779 -132.2185838 613.71948003 -132.3507843 609.44122314 C-132.4118605 607.51202055 -132.4118605 607.51202055 -132.47417057 605.54384416 C-133.01439399 587.05404004 -132.91880899 568.55275648 -132.90756488 550.0570246 C-132.90527052 544.45583138 -132.90881008 538.85464109 -132.9115448 533.25344849 C-132.91595829 522.3250258 -132.91504605 511.39661004 -132.91213216 500.4681871 C-132.90986142 491.57941682 -132.9095728 482.69064846 -132.91065598 473.80187798 C-132.91080921 472.53036641 -132.91096244 471.25885484 -132.91112032 469.94881262 C-132.91144008 467.36477646 -132.9117643 464.7807403 -132.91209291 462.19670414 C-132.91485375 438.73623292 -132.91200558 415.27576631 -132.90675031 391.81529592 C-132.90200195 370.45537858 -132.90243406 349.09546721 -132.9072113 327.73554993 C-132.91257893 303.65631454 -132.91466393 279.57708322 -132.91159904 255.49784702 C-132.91128053 252.92616618 -132.91096616 250.35448533 -132.91065598 247.78280449 C-132.9105017 246.51787156 -132.91034742 245.25293862 -132.91018847 243.94967439 C-132.90932865 235.07846418 -132.91077457 226.2072561 -132.91313553 217.33604622 C-132.91595228 206.51582433 -132.91515575 195.69560969 -132.90985478 184.87538863 C-132.90724355 179.36562674 -132.90616858 173.85587689 -132.90950394 168.34611511 C-132.93039902 130.31372391 -132.93039902 130.31372391 -132.3742218 116.62896729 C-132.34124658 115.78889808 -132.30827135 114.94882888 -132.27429688 114.08330303 C-131.23441884 93.55878945 -124.78972362 74.49910962 -113.77684021 57.26069641 C-113.42170349 56.69673157 -113.06656677 56.13276672 -112.70066833 55.55171204 C-95.64418029 28.88764783 -69.19241903 10.59231801 -38.53465271 3.23335266 C-36.95013595 2.90226023 -35.3639491 2.57913153 -33.77684021 2.26069641 C-32.92611858 2.08800053 -32.07539695 1.91530465 -31.19889587 1.73737556 C-20.80653466 -0.11695636 -10.52495813 -0.02155698 0 0 Z " fill="#EBEBEB" transform="translate(275.77684020996094,144.7393035888672)"/>
<path d="M0 0 C2.09919004 -0.00302415 4.19837899 -0.00691496 6.297566 -0.01159257 C12.0405427 -0.02184771 17.78345681 -0.01969704 23.52643859 -0.01541197 C29.73051298 -0.01294015 35.93457247 -0.02196473 42.13864136 -0.02944946 C54.28493832 -0.04218709 66.4312062 -0.04399697 78.57750737 -0.0416492 C88.45592066 -0.03981331 98.33432747 -0.04158236 108.21273994 -0.04587364 C109.63427627 -0.04647606 111.05581259 -0.04707726 112.47734891 -0.04767724 C114.61977236 -0.04858455 116.76219582 -0.04949322 118.90461926 -0.0504096 C138.81582261 -0.05883508 158.72702353 -0.06317778 178.63822842 -0.05900288 C179.76329699 -0.05876831 179.76329699 -0.05876831 180.91109423 -0.05852901 C184.71219845 -0.05772329 188.51330266 -0.05687751 192.31440686 -0.05601571 C193.06924933 -0.05584462 193.82409181 -0.05567353 194.60180829 -0.05549726 C196.12828371 -0.0551506 197.65475914 -0.05480207 199.18123456 -0.05445167 C222.91486953 -0.0490986 246.64846731 -0.05701476 270.38209534 -0.07548523 C297.07977511 -0.09623837 323.77743184 -0.10692137 350.47512013 -0.10290974 C353.32649266 -0.10251444 356.1778652 -0.10215288 359.02923775 -0.10181236 C360.08226615 -0.10167627 360.08226615 -0.10167627 361.15656785 -0.10153742 C371.7192304 -0.10037515 382.28186958 -0.10699164 392.84452629 -0.11762428 C404.87183567 -0.12971933 416.89907981 -0.13091006 428.92639457 -0.11883412 C435.05567744 -0.11296539 441.18486043 -0.1117901 447.31413651 -0.12383652 C452.93950149 -0.13476338 458.56468402 -0.13151183 464.19004072 -0.11757483 C466.21089148 -0.11494644 468.23175687 -0.11723503 470.25259321 -0.1253107 C487.48420601 -0.18931952 505.68218023 0.41457077 522.03565979 6.38569641 C522.88837463 6.68500061 523.74108948 6.98430481 524.61964417 7.29267883 C551.13905396 16.96100796 574.19597662 35.64311724 588.22315979 60.26069641 C588.58345276 60.88911438 588.94374573 61.51753235 589.31495667 62.16499329 C603.79995618 87.96558013 605.38811705 115.096386 605.35014343 144.01777649 C605.3512983 145.95741238 605.35288827 147.89704805 605.35487068 149.83668327 C605.35901404 155.12015624 605.35699603 160.40361096 605.35388446 165.68708396 C605.35160997 171.40374606 605.35512021 177.12040516 605.35786438 182.83706665 C605.36229988 194.01994033 605.36135529 205.20280728 605.35845174 216.38568121 C605.35618807 225.4830786 605.35588936 234.58047411 605.35697556 243.6778717 C605.3572054 245.62438232 605.3572054 245.62438232 605.3574399 247.61021638 C605.35775965 250.24699402 605.35808386 252.88377166 605.35841249 255.5205493 C605.36117989 279.51765274 605.35831508 303.51475267 605.35306989 327.51185554 C605.34832927 349.3664516 605.34874563 371.22104182 605.35353088 393.07563782 C605.35890008 417.67887878 605.36098194 442.28211638 605.35791862 466.88535786 C605.3576001 469.51457024 605.35728573 472.14378262 605.35697556 474.772995 C605.35682128 476.06635834 605.356667 477.35972168 605.35650805 478.69227785 C605.3556481 487.76477763 605.3570946 496.83727532 605.35945511 505.90977478 C605.36227396 516.98680514 605.36147132 528.06382843 605.35617436 539.14085799 C605.35356468 544.78241954 605.35248533 550.42396934 605.35582352 556.06553078 C605.37672032 594.98154759 605.37672032 594.98154759 604.82054138 609.90864563 C604.78756616 610.83080431 604.75459093 611.75296299 604.72061646 612.70306587 C603.01339531 649.91779694 587.36408885 680.26855287 560.37940979 705.35884094 C533.82716031 728.77845411 500.74608824 733.41800435 466.78053284 733.40113831 C464.69330605 733.40372481 462.60607976 733.40673877 460.51885414 733.41014171 C454.79978825 733.41818129 449.08073493 733.41999958 443.36166406 733.42073917 C437.1869271 733.42259502 431.01219659 733.43014498 424.83746338 733.43687439 C410.6402929 733.45114296 396.44312657 733.45698125 382.24595064 733.46156633 C375.2231014 733.46390612 368.20025298 733.46750918 361.17740437 733.47126171 C337.11506112 733.48409339 313.05271831 733.49481316 288.9903717 733.49826431 C287.48136878 733.49848594 285.97236586 733.49870773 284.46336293 733.49892966 C282.95082172 733.4991503 281.4382805 733.49937078 279.92573929 733.49959111 C276.89157867 733.50003365 273.85741806 733.50048077 270.82325745 733.50093079 C270.07096837 733.50104018 269.3186793 733.50114957 268.54359359 733.50126227 C244.15948184 733.5048916 219.77539985 733.52080893 195.3912995 733.54412115 C169.58192329 733.56875068 143.77256407 733.58243858 117.96317577 733.58363223 C115.12671089 733.58380367 112.29024601 733.58401909 109.45378113 733.58426666 C108.75541638 733.58432243 108.05705162 733.5843782 107.3375243 733.58443566 C96.12900983 733.58558333 84.92052605 733.59658097 73.71202192 733.61115372 C62.4336574 733.6255631 51.15533138 733.62847945 39.87695664 733.62071374 C33.77438493 733.61681748 27.67191588 733.6176868 21.56935692 733.63177109 C15.97182932 733.64457115 10.37448091 733.64325919 4.77695334 733.63118038 C2.7628238 733.62923393 0.74868129 733.63225254 -1.26543009 733.64102474 C-23.85938368 733.73312016 -45.46575653 730.73180594 -65.77684021 720.26069641 C-66.87512146 719.6973761 -67.97340271 719.13405579 -69.10496521 718.55366516 C-76.82278028 714.44256595 -83.40510353 709.57752085 -89.93699646 703.77632141 C-91.70719005 702.20822695 -93.51876487 700.68426093 -95.38621521 699.23335266 C-117.28776653 681.16099414 -129.02704667 649.58032722 -131.77684021 622.26069641 C-132.06323897 617.98975779 -132.2185838 613.71948003 -132.3507843 609.44122314 C-132.4118605 607.51202055 -132.4118605 607.51202055 -132.47417057 605.54384416 C-133.01439399 587.05404004 -132.91880899 568.55275648 -132.90756488 550.0570246 C-132.90527052 544.45583138 -132.90881008 538.85464109 -132.9115448 533.25344849 C-132.91595829 522.3250258 -132.91504605 511.39661004 -132.91213216 500.4681871 C-132.90986142 491.57941682 -132.9095728 482.69064846 -132.91065598 473.80187798 C-132.91080921 472.53036641 -132.91096244 471.25885484 -132.91112032 469.94881262 C-132.91144008 467.36477646 -132.9117643 464.7807403 -132.91209291 462.19670414 C-132.91485375 438.73623292 -132.91200558 415.27576631 -132.90675031 391.81529592 C-132.90200195 370.45537858 -132.90243406 349.09546721 -132.9072113 327.73554993 C-132.91257893 303.65631454 -132.91466393 279.57708322 -132.91159904 255.49784702 C-132.91128053 252.92616618 -132.91096616 250.35448533 -132.91065598 247.78280449 C-132.9105017 246.51787156 -132.91034742 245.25293862 -132.91018847 243.94967439 C-132.90932865 235.07846418 -132.91077457 226.2072561 -132.91313553 217.33604622 C-132.91595228 206.51582433 -132.91515575 195.69560969 -132.90985478 184.87538863 C-132.90724355 179.36562674 -132.90616858 173.85587689 -132.90950394 168.34611511 C-132.93039902 130.31372391 -132.93039902 130.31372391 -132.3742218 116.62896729 C-132.34124658 115.78889808 -132.30827135 114.94882888 -132.27429688 114.08330303 C-131.23441884 93.55878945 -124.78972362 74.49910962 -113.77684021 57.26069641 C-113.42170349 56.69673157 -113.06656677 56.13276672 -112.70066833 55.55171204 C-95.64418029 28.88764783 -69.19241903 10.59231801 -38.53465271 3.23335266 C-36.95013595 2.90226023 -35.3639491 2.57913153 -33.77684021 2.26069641 C-32.92611858 2.08800053 -32.07539695 1.91530465 -31.19889587 1.73737556 C-20.80653466 -0.11695636 -10.52495813 -0.02155698 0 0 Z M-72.77684021 62.26069641 C-73.44586365 62.94389954 -74.11488708 63.62710266 -74.80418396 64.33100891 C-79.93060248 69.84531595 -83.42797244 75.54393322 -86.77684021 82.26069641 C-87.23059021 83.10889954 -87.68434021 83.95710266 -88.15184021 84.83100891 C-97.12005009 101.85993124 -97.07671812 120.34627631 -97.05099487 139.13928223 C-97.05545589 141.2129011 -97.06077275 143.28651827 -97.0668636 145.36013299 C-97.08094977 151.01844545 -97.08270869 156.67670273 -97.08226669 162.3350302 C-97.08392318 168.45314695 -97.09700488 174.57124152 -97.10845947 180.68934631 C-97.13005811 193.35286331 -97.13870759 206.01635724 -97.14349448 218.67988835 C-97.14375565 219.3669093 -97.14401683 220.05393025 -97.14428592 220.76177001 C-97.14454619 221.45026781 -97.14480647 222.13876562 -97.14507463 222.84812699 C-97.14816552 230.50161085 -97.15467315 238.15509128 -97.16128731 245.80857277 C-97.1809229 268.95101724 -97.19733495 292.09345803 -97.20016384 315.23591137 C-97.2002579 315.97490424 -97.20035196 316.7138971 -97.20044887 317.4752837 C-97.20082733 320.46970078 -97.20119132 323.46411787 -97.20155185 326.45853496 C-97.20182357 328.7120061 -97.20210025 330.96547723 -97.20237732 333.21894836 C-97.20246534 333.96358212 -97.20255336 334.70821587 -97.20264405 335.47541428 C-97.20554888 358.86717637 -97.2276464 382.25885578 -97.26390076 405.65058899 C-97.30469392 431.97106264 -97.32832289 458.29147996 -97.32862335 484.61198694 C-97.32872017 487.42257171 -97.32888688 490.23315646 -97.32910347 493.04374123 C-97.32914758 493.73570603 -97.3291917 494.42767083 -97.32923715 495.14060426 C-97.3303533 506.23782187 -97.34770735 517.33495605 -97.37092279 528.43214686 C-97.3938496 539.59905422 -97.39751489 550.76585136 -97.38337349 561.93278363 C-97.37622648 567.97292261 -97.376967 574.01277479 -97.39978409 580.05288124 C-97.42052043 585.59552813 -97.41763792 591.13767037 -97.39690924 596.68031267 C-97.39344231 598.67212335 -97.39820374 600.66397156 -97.41261368 602.65573313 C-97.5935445 629.4153356 -90.93324901 653.97970323 -72.23387146 673.88960266 C-61.1575561 684.57851112 -46.85786984 692.8257037 -31.77684021 696.26069641 C-31.15224935 696.4204659 -30.52765849 696.58023539 -29.88414064 696.74484638 C-24.39447903 698.0845906 -19.29590876 698.54695678 -13.65833282 698.51796532 C-12.78184054 698.52147139 -11.90534827 698.52497747 -11.00229561 698.52858979 C-8.07466272 698.53786996 -5.14723022 698.53298918 -2.21958923 698.52812195 C-0.09553888 698.53185992 2.0285101 698.53646203 4.1525569 698.54185259 C9.98263019 698.55408006 15.81264609 698.5538224 21.64272928 698.55146384 C27.93335255 698.55105561 34.22395744 698.56209558 40.51457214 698.57157898 C52.83753796 698.58818929 65.16048075 698.5937145 77.48345631 698.59480374 C87.50264549 698.59572354 97.52182847 698.59984394 107.54101562 698.60620499 C110.42719888 698.60800014 113.31338214 698.60977977 116.19956541 698.61155474 C117.27591189 698.61221789 117.27591189 698.61221789 118.37400275 698.61289443 C138.55455867 698.62520069 158.73511246 698.63309579 178.9156723 698.63220787 C179.67630534 698.63217671 180.43693837 698.63214556 181.2206209 698.63211345 C185.07562752 698.63194724 188.93063415 698.63174916 192.78564078 698.63154404 C193.93401896 698.6314842 193.93401896 698.6314842 195.1055967 698.63142316 C196.653798 698.63134228 198.20199929 698.63125869 199.75020059 698.63117238 C223.82552106 698.62994748 247.90078514 698.64494952 271.97608948 698.6723175 C299.04029365 698.70307067 326.10446078 698.72024799 353.16868353 698.71839106 C356.05738163 698.71824181 358.94607973 698.71814439 361.83477783 698.71808243 C362.54601879 698.71805912 363.25725974 698.71803581 363.99005345 698.7180118 C375.412942 698.71795037 386.83578144 698.73069716 398.25865541 698.74794696 C409.75008814 698.76494068 421.24142424 698.76650647 432.73286742 698.75372832 C438.95266911 698.74720725 445.17229366 698.74705052 451.3920784 698.76443481 C457.09448685 698.7802086 462.79657834 698.77725773 468.49897927 698.75986655 C470.5535093 698.75680612 472.60806324 698.76039259 474.66256505 698.7715867 C500.85666314 698.90476723 524.20948178 692.41839153 543.72315979 673.89741516 C550.36326691 666.89417718 555.58847381 658.69820166 560.22315979 650.26069641 C560.66530823 649.46792297 561.10745667 648.67514954 561.56300354 647.85835266 C569.31630212 632.56385181 569.81202861 615.45367426 569.73109436 598.67726135 C569.73571423 596.56377636 569.74207437 594.45029458 569.75000334 592.33681941 C569.76657005 586.58241286 569.75850839 580.82827457 569.74605846 575.07386756 C569.73695829 568.8475265 569.75100206 562.62122957 569.76197815 556.39489746 C569.77869128 544.92167403 569.777308 533.44856902 569.76633228 521.97534631 C569.756243 511.3759222 569.75365583 500.77652906 569.75842285 490.17710114 C569.75872839 489.47216085 569.75903393 488.76722057 569.75934873 488.04091847 C569.76059421 485.17889197 569.76186783 482.3168655 569.76318779 479.45483903 C569.77540324 452.64855773 569.76436166 425.84233023 569.7428002 399.03605723 C569.72381175 375.24778967 569.7255256 351.45960776 569.74464417 327.67134094 C569.76608389 300.90592313 569.77454494 274.14055276 569.76219511 247.37512755 C569.76091235 244.51976126 569.75966098 241.66439494 569.75842285 238.80902863 C569.75810654 238.10603358 569.75779023 237.40303854 569.75746434 236.67874062 C569.75292401 226.0861553 569.75821748 215.49360441 569.76834106 204.90102386 C569.77979785 192.85387462 569.7764929 180.80684851 569.75521809 168.75970301 C569.74472674 162.6170461 569.74055347 156.47456278 569.7538147 150.33190727 C569.76578333 144.70277276 569.75910231 139.07397184 569.73790449 133.44486734 C569.73345747 131.41490251 569.73566161 129.38490916 569.74540764 127.35496286 C569.8624129 100.94725601 561.74143797 78.51484259 543.22315979 59.26069641 C523.46991146 39.90009674 498.98980177 34.94403135 472.41625977 35.00672913 C470.28961981 35.00442299 468.16298065 35.00124544 466.03634316 34.99727464 C460.20866986 34.98893915 454.38106222 34.99304628 448.55338871 34.99924707 C442.2622573 35.00377561 435.97113711 34.99678582 429.68000793 34.99128723 C418.07384328 34.98290964 406.46770517 34.98363306 394.86153985 34.98911017 C384.13941161 34.99414514 373.41729101 34.99545288 362.69516182 34.99306488 C361.98340061 34.99291211 361.2716394 34.99275934 360.53830967 34.99260194 C357.64890868 34.99197925 354.75950768 34.99134244 351.87010669 34.99068241 C324.77721111 34.98456732 297.68432883 34.99010685 270.5914353 35.00087621 C246.52929794 35.01036812 222.46718174 35.00951697 198.40504456 34.99995422 C171.35957405 34.98924173 144.31411529 34.98500001 117.26864296 34.99117875 C114.38487598 34.99182017 111.50110899 34.99244585 108.617342 34.99306488 C107.90730523 34.99322304 107.19726847 34.99338119 106.46571544 34.99354414 C95.75052132 34.99581764 85.03533569 34.99316123 74.32014275 34.98810577 C62.13544613 34.9823856 49.95078086 34.98401291 37.76608592 34.99466726 C31.54921316 34.99992414 25.33238338 35.00198036 19.11551094 34.99536896 C13.42411242 34.9894079 7.7327967 34.99268732 2.04140569 35.00332406 C-0.01697542 35.00555739 -2.07536353 35.00442331 -4.13374013 34.99957249 C-6.93397333 34.99347979 -9.73392394 34.99974058 -12.53414249 35.00901413 C-13.33096594 35.0043318 -14.12778938 34.99964947 -14.94875899 34.99482524 C-37.54090815 35.14408643 -57.3402596 46.47610915 -72.77684021 62.26069641 Z " fill="#0F0F0F" transform="translate(275.77684020996094,144.7393035888672)"/>
<path d="M0 0 C1.06283203 0.01160156 2.12566406 0.02320313 3.22070312 0.03515625 C20.18776197 0.38972294 35.82358847 6.21028068 48.0859375 18.2265625 C48.75882812 18.93554688 49.43171875 19.64453125 50.125 20.375 C50.69476563 20.96023438 51.26453125 21.54546875 51.8515625 22.1484375 C66.03219218 37.63804838 67.90673418 55.35606681 67.30419922 75.43457031 C66.95319245 81.19414192 65.56388253 86.12610064 63.125 91.375 C62.47144531 92.79232422 62.47144531 92.79232422 61.8046875 94.23828125 C54.42960691 108.80708798 43.66230949 119.18062348 29.125 126.375 C28.15820312 126.890625 27.19140625 127.40625 26.1953125 127.9375 C11.13528702 134.9885043 -6.53529828 133.75606384 -21.875 128.375 C-39.45718768 121.37554408 -51.97023575 109.67550327 -59.75 92.5 C-66.65610293 74.33862205 -66.94742775 55.67509539 -59.3671875 37.82421875 C-55.57011867 30.30955462 -50.84604068 24.27507755 -44.875 18.375 C-44.18792969 17.66601562 -43.50085938 16.95703125 -42.79296875 16.2265625 C-31.20349164 5.00261621 -15.89476614 -0.22230442 0 0 Z " fill="#131313" transform="translate(333.875,266.625)"/>
<path d="M0 0 C1.56657349 0.00749268 1.56657349 0.00749268 3.16479492 0.01513672 C21.37699763 0.42175299 36.44299811 7.67472321 49.3125 20.5 C49.93898438 21.10328125 50.56546875 21.7065625 51.2109375 22.328125 C63.38805806 35.00114639 67.85259299 51.3205323 67.73266602 68.48022461 C67.188129 85.85147736 58.37591392 102.12012653 46.44921875 114.421875 C33.16045224 126.85773932 16.48609825 132.30509071 -1.4440918 131.94897461 C-21.28085564 131.11963663 -36.16863487 123.73148748 -49.6875 109.5 C-58.57703179 99.67865146 -64.97239822 85.79248016 -65.6875 72.5 C-65.75195312 71.3346875 -65.81640625 70.169375 -65.8828125 68.96875 C-66.51669548 51.89194263 -61.68449362 36.20674575 -50.3125 23.1875 C-48.79008547 21.60623583 -47.24886864 20.04281248 -45.6875 18.5 C-45.00042969 17.79101562 -44.31335938 17.08203125 -43.60546875 16.3515625 C-31.82304526 4.94075534 -16.15596485 -0.10259426 0 0 Z " fill="#0F0F0F" transform="translate(687.6875,625.5)"/>
<path d="M0 0 C0.33 0 0.66 0 1 0 C1 34.98 1 69.96 1 106 C0.67 106 0.34 106 0 106 C0 103.36 0 100.72 0 98 C-0.66 98 -1.32 98 -2 98 C-2 93.05 -2 88.1 -2 83 C-1.67 83 -1.34 83 -1 83 C-0.67 55.61 -0.34 28.22 0 0 Z " fill="#E3E3E3" transform="translate(844,477)"/>
<path d="M0 0 C0.66 0 1.32 0 2 0 C2 1.32 2 2.64 2 4 C2.66 4.33 3.32 4.66 4 5 C-7.5108209 20.85373134 -7.5108209 20.85373134 -14 24 C-14.33 22.35 -14.66 20.7 -15 19 C-14.34 19 -13.68 19 -13 19 C-12.67 18.01 -12.34 17.02 -12 16 C-10.68 16.66 -9.36 17.32 -8 18 C-8.33 14.7 -8.66 11.4 -9 8 C-8.34 8 -7.68 8 -7 8 C-7 8.66 -7 9.32 -7 10 C-6.34 10 -5.68 10 -5 10 C-4.67 9.34 -4.34 8.68 -4 8 C-3.01 7.67 -2.02 7.34 -1 7 C-0.67 4.69 -0.34 2.38 0 0 Z " fill="#CCCCCC" transform="translate(826,800)"/>
<path d="M0 0 C0.33 0 0.66 0 1 0 C1 12.87 1 25.74 1 39 C0.01 39 -0.98 39 -2 39 C-2.10544748 29.29883218 -2.02567014 19.62979653 -1.5625 9.9375 C-1.52326416 9.06319336 -1.48402832 8.18888672 -1.44360352 7.28808594 C-1.1233158 1.1233158 -1.1233158 1.1233158 0 0 Z " fill="#D8D8D8" transform="translate(844,584)"/>
<path d="M0 0 C2 1 2 1 3 2 C2.71269945 4.33944736 2.38063221 6.6739143 2 9 C1.34 8.34 0.68 7.68 0 7 C-0.33 7.66 -0.66 8.32 -1 9 C-2.32 9 -3.64 9 -5 9 C-5 10.98 -5 12.96 -5 15 C-6.1446875 15.2165625 -6.1446875 15.2165625 -7.3125 15.4375 C-10.08172908 15.9632594 -10.08172908 15.9632594 -13 17 C-13 16.34 -13 15.68 -13 15 C-12.34 15 -11.68 15 -11 15 C-11.33 14.01 -11.66 13.02 -12 12 C-10.56665422 10.37133456 -9.12817021 8.74719006 -7.6875 7.125 C-6.88699219 6.22007812 -6.08648437 5.31515625 -5.26171875 4.3828125 C-3 2 -3 2 0 0 Z " fill="#F5F5F5" transform="translate(388,374)"/>
<path d="M0 0 C2.31 0 4.62 0 7 0 C7.74609375 1.703125 7.74609375 1.703125 8 4 C6.34765625 6.359375 6.34765625 6.359375 4.0625 8.75 C2.93521484 9.94882812 2.93521484 9.94882812 1.78515625 11.171875 C1.19605469 11.77515625 0.60695313 12.3784375 0 13 C-0.66 12.34 -1.32 11.68 -2 11 C-1.7578125 9.16015625 -1.7578125 9.16015625 -1.125 7.0625 C-0.3616957 4.47789367 0 2.74230564 0 0 Z " fill="#DCDCDC" transform="translate(634,641)"/>
<path d="M0 0 C0.99 0.33 1.98 0.66 3 1 C4.32 1 5.64 1 7 1 C7.33 3.31 7.66 5.62 8 8 C5 9 5 9 2.73828125 8.00390625 C1.93777344 7.52824219 1.13726562 7.05257813 0.3125 6.5625 C-0.49574219 6.08941406 -1.30398438 5.61632812 -2.13671875 5.12890625 C-2.75160156 4.75636719 -3.36648438 4.38382812 -4 4 C-3.34 3.01 -2.68 2.02 -2 1 C-1.34 1.33 -0.68 1.66 0 2 C0 1.34 0 0.68 0 0 Z " fill="#1A1A1A" transform="translate(304,385)"/>
<path d="M0 0 C-4.23353847 4.93912821 -9.12975632 7.32134512 -15 10 C-14.67 8.68 -14.34 7.36 -14 6 C-12.68 6 -11.36 6 -10 6 C-10.33 4.68 -10.66 3.36 -11 2 C-9.73392393 1.46770674 -8.46189588 0.94955456 -7.1875 0.4375 C-6.47980469 0.14746094 -5.77210938 -0.14257812 -5.04296875 -0.44140625 C-3 -1 -3 -1 0 0 Z " fill="#C2C2C2" transform="translate(812,824)"/>
<path d="M0 0 C0.804375 0.391875 1.60875 0.78375 2.4375 1.1875 C3.4275 1.5175 4.4175 1.8475 5.4375 2.1875 C-4.93607631 6.59524487 -4.93607631 6.59524487 -10.5625 7.1875 C-10.5625 6.5275 -10.5625 5.8675 -10.5625 5.1875 C-11.5525 4.8575 -12.5425 4.5275 -13.5625 4.1875 C-11.5825 3.8575 -9.6025 3.5275 -7.5625 3.1875 C-7.5625 3.8475 -7.5625 4.5075 -7.5625 5.1875 C-6.9025 5.1875 -6.2425 5.1875 -5.5625 5.1875 C-5.8925 3.8675 -6.2225 2.5475 -6.5625 1.1875 C-3.94494859 -0.55753428 -3.07453584 -0.97485283 0 0 Z " fill="#C7C7C7" transform="translate(790.5625,832.8125)"/>
<path d="M0 0 C0.87840996 3.09720845 0.99435406 4.90645403 0 8 C-0.66 8 -1.32 8 -2 8 C-2.2475 8.598125 -2.495 9.19625 -2.75 9.8125 C-4.16370012 12.28647521 -5.65055383 13.43370255 -8 15 C-8.33 14.67 -8.66 14.34 -9 14 C-9.66 14.66 -10.32 15.32 -11 16 C-11.66 15.34 -12.32 14.68 -13 14 C-12.48050781 13.57589844 -11.96101562 13.15179687 -11.42578125 12.71484375 C-6.80565028 8.82915135 -3.30081313 5.05437011 0 0 Z " fill="#D7D7D7" transform="translate(743,728)"/>
<path d="M0 0 C0.99 0 1.98 0 3 0 C3 7.59 3 15.18 3 23 C2.67 23 2.34 23 2 23 C2 20.36 2 17.72 2 15 C1.34 15 0.68 15 0 15 C0 10.05 0 5.1 0 0 Z " fill="#D8D8D8" transform="translate(842,560)"/>
<path d="M0 0 C4.21749219 -0.07419134 8.43463811 -0.1286204 12.65258789 -0.16479492 C14.08722552 -0.17987589 15.52181708 -0.2003438 16.95629883 -0.22631836 C19.01915859 -0.26273437 21.08140858 -0.27973243 23.14453125 -0.29296875 C25.00621948 -0.31653442 25.00621948 -0.31653442 26.90551758 -0.34057617 C30 0 30 0 33 3 C22.11 3 11.22 3 0 3 C0 2.01 0 1.02 0 0 Z " fill="#AAAAAA" transform="translate(673,756)"/>
<path d="M0 0 C2.125 0.9375 2.125 0.9375 4 2 C0.69984002 6.13937592 -2.17324411 9.58662205 -7 12 C-7.33 10.35 -7.66 8.7 -8 7 C-7.34 7 -6.68 7 -6 7 C-5.67 6.01 -5.34 5.02 -5 4 C-3.68 4.66 -2.36 5.32 -1 6 C-1.33 4.35 -1.66 2.7 -2 1 C-1.34 0.67 -0.68 0.34 0 0 Z " fill="#B5B5B5" transform="translate(819,812)"/>
<path d="M0 0 C1.32 0 2.64 0 4 0 C5.61949011 2.57213134 6.04408751 3.67669159 5.625 6.75 C5.41875 7.4925 5.2125 8.235 5 9 C5.99 8.67 6.98 8.34 8 8 C8.33 8.66 8.66 9.32 9 10 C8.01 11.485 8.01 11.485 7 13 C4.03 9.37 1.06 5.74 -2 2 C-1.34 1.34 -0.68 0.68 0 0 Z " fill="#212121" transform="translate(282,368)"/>
<path d="M0 0 C0.515625 0.2475 1.03125 0.495 1.5625 0.75 C1.5625 1.41 1.5625 2.07 1.5625 2.75 C-0.08203125 4.07421875 -0.08203125 4.07421875 -2.25 5.4375 C-2.95769531 5.89511719 -3.66539062 6.35273437 -4.39453125 6.82421875 C-6.4375 7.75 -6.4375 7.75 -9.4375 6.75 C-9.4375 5.76 -9.4375 4.77 -9.4375 3.75 C-3.0375 -0.31153846 -3.0375 -0.31153846 0 0 Z " fill="#DBDBDB" transform="translate(725.4375,747.25)"/>
<path d="M0 0 C2 2 2 2 3 5 C3.99 5.33 4.98 5.66 6 6 C6.625 8.875 6.625 8.875 7 12 C6.34 12.66 5.68 13.32 5 14 C4.0204042 12.20856793 3.0413367 10.41684696 2.0625 8.625 C1.51722656 7.62726562 0.97195313 6.62953125 0.41015625 5.6015625 C-0.4149759 4.07929654 -1.22564391 2.54871217 -2 1 C-1.34 0.67 -0.68 0.34 0 0 Z " fill="#D5D5D5" transform="translate(744,651)"/>
<path d="M0 0 C0.33 0.66 0.66 1.32 1 2 C3.64 1.67 6.28 1.34 9 1 C9.33 1.99 9.66 2.98 10 4 C5.545 5.485 5.545 5.485 1 7 C0.01 5.68 -0.98 4.36 -2 3 C-1.34 2.01 -0.68 1.02 0 0 Z " fill="#DBDBDB" transform="translate(658,625)"/>
<path d="M0 0 C0.66 0 1.32 0 2 0 C2 0.99 2 1.98 2 3 C2.66 3 3.32 3 4 3 C3.67 7.62 3.34 12.24 3 17 C2.67 17 2.34 17 2 17 C0.4943096 11.19233704 -0.21824777 6.0018137 0 0 Z " fill="#212121" transform="translate(177,246)"/>
<path d="M0 0 C0.33 0.99 0.66 1.98 1 3 C-3.625 7 -3.625 7 -7 7 C-7.33 7.66 -7.66 8.32 -8 9 C-7.34 9.33 -6.68 9.66 -6 10 C-6.99 10.33 -7.98 10.66 -9 11 C-9 10.01 -9 9.02 -9 8 C-9.66 7.67 -10.32 7.34 -11 7 C-7.37 4.69 -3.74 2.38 0 0 Z " fill="#161616" transform="translate(811,825)"/>
<path d="M0 0 C0.99 0.33 1.98 0.66 3 1 C1.68938409 5.23429756 0.05643741 9.07407404 -2 13 C-3.37302582 8.88092254 -2.74706646 6.27865333 -2 2 C-1.34 1.34 -0.68 0.68 0 0 Z " fill="#C7C7C7" transform="translate(835,788)"/>
<path d="M0 0 C1.98 0 3.96 0 6 0 C6.33 1.32 6.66 2.64 7 4 C4.35261084 5.4606285 3.10551666 6 0 6 C0 4.02 0 2.04 0 0 Z " fill="#1F1F1E" transform="translate(713,746)"/>
<path d="M0 0 C1.32 0.66 2.64 1.32 4 2 C4 3.65 4 5.3 4 7 C2.68 7.33 1.36 7.66 0 8 C0 8.66 0 9.32 0 10 C-0.66 10 -1.32 10 -2 10 C-1.34 6.7 -0.68 3.4 0 0 Z " fill="#151515" transform="translate(842,776)"/>
<path d="M0 0 C0.99 0 1.98 0 3 0 C2.01 3.3 1.02 6.6 0 10 C-0.99 10 -1.98 10 -3 10 C-2.69201674 8.51988629 -2.378482 7.04092675 -2.0625 5.5625 C-1.88847656 4.73878906 -1.71445312 3.91507813 -1.53515625 3.06640625 C-1 1 -1 1 0 0 Z " fill="#1F1F1F" transform="translate(749,709)"/>
<path d="M0 0 C0.66 1.32 1.32 2.64 2 4 C-0.475 5.485 -0.475 5.485 -3 7 C-3.66 5.68 -4.32 4.36 -5 3 C-3.35 2.01 -1.7 1.02 0 0 Z " fill="#060606" transform="translate(822,817)"/>
<path d="M0 0 C4.875 4.75 4.875 4.75 6 7 C5.34 7 4.68 7 4 7 C3.67 7.66 3.34 8.32 3 9 C2.01 8.34 1.02 7.68 0 7 C-0.1875 3.375 -0.1875 3.375 0 0 Z " fill="#222222" transform="translate(384,288)"/>
<path d="M0 0 C1.37562854 1.28965176 2.70766393 2.62689293 4 4 C4 4.66 4 5.32 4 6 C3.01 6 2.02 6 1 6 C0.67 5.34 0.34 4.68 0 4 C-0.66 4.66 -1.32 5.32 -2 6 C-2.66 4.68 -3.32 3.36 -4 2 C-2.68 1.34 -1.36 0.68 0 0 Z " fill="#F4F4F4" transform="translate(277,366)"/>
<path d="M0 0 C0.33 1.98 0.66 3.96 1 6 C0.01 6.33 -0.98 6.66 -2 7 C-2.66 6.34 -3.32 5.68 -4 5 C-4 3.68 -4 2.36 -4 1 C-2 0 -2 0 0 0 Z " fill="#131313" transform="translate(800,833)"/>
<path d="M0 0 C0.99 0.33 1.98 0.66 3 1 C2.49396008 3.16874252 2.00016187 4.99967627 1 7 C-0.65 6.01 -2.3 5.02 -4 4 C-3.34 3.01 -2.68 2.02 -2 1 C-1.34 1.33 -0.68 1.66 0 2 C0 1.34 0 0.68 0 0 Z " fill="#202020" transform="translate(304,385)"/>
<path d="M0 0 C0.86625 0.3403125 0.86625 0.3403125 1.75 0.6875 C1.75 1.3475 1.75 2.0075 1.75 2.6875 C1.110625 2.81125 0.47125 2.935 -0.1875 3.0625 C-0.868125 3.26875 -1.54875 3.475 -2.25 3.6875 C-2.58 4.3475 -2.91 5.0075 -3.25 5.6875 C-4.24 4.6975 -5.23 3.7075 -6.25 2.6875 C-2.80384615 -0.38942308 -2.80384615 -0.38942308 0 0 Z " fill="#F3F3F3" transform="translate(295.25,385.3125)"/>
<path d="M0 0 C2.94887797 0.50842724 5.37371875 1.59306362 8 3 C7.67 3.99 7.34 4.98 7 6 C3.62496331 4.8141763 1.35277269 3.72426311 -1 1 C-0.67 0.67 -0.34 0.34 0 0 Z " fill="#DFDFDF" transform="translate(216,826)"/>
<path d="M0 0 C0.98120464 3.05263664 0.98120464 4.94736336 0 8 C-0.66 8 -1.32 8 -2 8 C-2.33 8.66 -2.66 9.32 -3 10 C-3.75 7.8125 -3.75 7.8125 -4 5 C-2.0625 2.1875 -2.0625 2.1875 0 0 Z " fill="#C9CBCA" transform="translate(743,728)"/>
<path d="M0 0 C-1.39332574 3.36720387 -2.9789286 4.9859524 -6 7 C-6.66 6.67 -7.32 6.34 -8 6 C-3.375 0 -3.375 0 0 0 Z " fill="#151515" transform="translate(828,811)"/>
<path d="M0 0 C2.84354775 1.8956985 4.2933209 3.09864553 6 6 C5.67 7.32 5.34 8.64 5 10 C3.02 7.36 1.04 4.72 -1 2 C-0.67 1.34 -0.34 0.68 0 0 Z " fill="#CBCBCB" transform="translate(736,642)"/>
<path d="M0 0 C1.32 0 2.64 0 4 0 C4 0.99 4 1.98 4 3 C4.99 3.66 5.98 4.32 7 5 C6.34 5 5.68 5 5 5 C4.67 5.66 4.34 6.32 4 7 C2.35 5.35 0.7 3.7 -1 2 C-0.67 1.34 -0.34 0.68 0 0 Z " fill="#D9D9D9" transform="translate(727,634)"/>
<path d="M0 0 C0.66 0.33 1.32 0.66 2 1 C1.6875 3.375 1.6875 3.375 1 6 C0.01 6.66 -0.98 7.32 -2 8 C-2.33 6.35 -2.66 4.7 -3 3 C-2.34 3 -1.68 3 -1 3 C-0.67 2.01 -0.34 1.02 0 0 Z " fill="#CACACA" transform="translate(814,816)"/>
<path d="M0 0 C0.66 0 1.32 0 2 0 C2 1.32 2 2.64 2 4 C2.66 4.33 3.32 4.66 4 5 C2.68 6.65 1.36 8.3 0 10 C0 6.7 0 3.4 0 0 Z " fill="#C4C4C4" transform="translate(826,800)"/>
<path d="M0 0 C1.32 1.65 2.64 3.3 4 5 C3.01 6.32 2.02 7.64 1 9 C-0.61949011 6.42786866 -1.04408751 5.32330841 -0.625 2.25 C-0.41875 1.5075 -0.2125 0.765 0 0 Z " fill="#060606" transform="translate(187,799)"/>
<path d="M0 0 C-4.16138263 0.08159574 -7.9472484 -0.01751476 -12 -1 C-12 -1.33 -12 -1.66 -12 -2 C-6.84854146 -3.28786464 -4.42296703 -2.94864468 0 0 Z " fill="#C7C7C7" transform="translate(706,759)"/>
<path d="M0 0 C0.66 0.99 1.32 1.98 2 3 C0.02 5.31 -1.96 7.62 -4 10 C-4 5.75354935 -2.18249194 3.61475228 0 0 Z " fill="#2A2A2A" transform="translate(835,795)"/>
<path d="M0 0 C1.65 1.65 3.3 3.3 5 5 C4.01 5.33 3.02 5.66 2 6 C1.01 5.01 0.02 4.02 -1 3 C-0.67 2.01 -0.34 1.02 0 0 Z " fill="#D3D3D3" transform="translate(637,734)"/>
<path d="M0 0 C2.31 0 4.62 0 7 0 C6.67 0.66 6.34 1.32 6 2 C6.66 2.66 7.32 3.32 8 4 C5.69 3.67 3.38 3.34 1 3 C0.67 2.01 0.34 1.02 0 0 Z " fill="#1A1A1A" transform="translate(339,394)"/>
<path d="M0 0 C0.66 0 1.32 0 2 0 C2.33 2.31 2.66 4.62 3 7 C1.68 6.67 0.36 6.34 -1 6 C-0.67 4.02 -0.34 2.04 0 0 Z " fill="#282728" transform="translate(397,312)"/>
<path d="M0 0 C2.97 0.33 5.94 0.66 9 1 C9 1.99 9 2.98 9 4 C6.03 3.01 3.06 2.02 0 1 C0 0.67 0 0.34 0 0 Z " fill="#C5C5C5" transform="translate(229,835)"/>
<path d="M0 0 C-1.375 2 -1.375 2 -3 4 C-3.66 4 -4.32 4 -5 4 C-5.33 2.68 -5.66 1.36 -6 0 C-3 -1 -3 -1 0 0 Z " fill="#292929" transform="translate(382,379)"/>
<path d="M0 0 C0.99 0.66 1.98 1.32 3 2 C3 2.66 3 3.32 3 4 C1.35 4.33 -0.3 4.66 -2 5 C-2.33 3.68 -2.66 2.36 -3 1 C-2.01 0.67 -1.02 0.34 0 0 Z " fill="#F9F9F9" transform="translate(396,296)"/>
<path d="M0 0 C1.65 0.33 3.3 0.66 5 1 C3.68 2.32 2.36 3.64 1 5 C0.34 4.67 -0.32 4.34 -1 4 C-0.67 2.68 -0.34 1.36 0 0 Z " fill="#E1E1E1" transform="translate(285,283)"/>
<path d="" fill="#FFFFFF" transform="translate(0,0)"/>
</svg>
