<?xml version="1.0" encoding="UTF-8"?>
<svg version="1.1" xmlns="http://www.w3.org/2000/svg" width="1024" height="1024">
<path d="M0 0 C1.70804767 -0.00230799 3.41609434 -0.00548678 5.12413895 -0.00945449 C9.79027704 -0.0177648 14.4563328 -0.01369438 19.12247109 -0.00748205 C24.1655254 -0.00294303 29.2085659 -0.00994855 34.25161743 -0.01544189 C44.12070221 -0.02432246 53.98975652 -0.02241972 63.85884248 -0.01661661 C71.88284785 -0.01209436 79.9068447 -0.01148966 87.93085098 -0.01366425 C89.07418254 -0.01397071 90.21751409 -0.01427718 91.39549205 -0.01459293 C93.71839141 -0.0152324 96.04129077 -0.01588083 98.36419012 -0.01653811 C120.13293195 -0.02223763 141.90165692 -0.01568972 163.67039599 -0.00493738 C182.33269146 0.00399538 200.99496205 0.00244761 219.65725708 -0.0067749 C241.34660029 -0.01748835 263.03592872 -0.02168582 284.72527421 -0.01555037 C287.040097 -0.0149133 289.35491979 -0.01428456 291.66974258 -0.01366425 C293.37799033 -0.01320142 293.37799033 -0.01320142 295.12074813 -0.01272924 C303.13035665 -0.01100535 311.13995577 -0.01391086 319.14956284 -0.01862335 C328.91756889 -0.02424423 338.68554281 -0.02269047 348.4535452 -0.01206186 C353.43348623 -0.00682103 358.41337378 -0.00472121 363.39331436 -0.01136017 C367.95921558 -0.01735488 372.52501415 -0.01398685 377.09090616 -0.00340506 C378.73546836 -0.00118586 380.38003939 -0.00227372 382.02459584 -0.00715664 C407.91246137 -0.07807616 430.37494061 5.89858769 450.93411255 22.25396729 C451.95891724 23.03127197 451.95891724 23.03127197 453.00442505 23.82427979 C471.75821429 38.93360796 482.76863169 62.96824664 485.46146774 86.46437263 C486.17065476 93.78550752 486.07921319 101.12238251 486.07455444 108.46951294 C486.07714189 110.10968569 486.0801561 111.74985781 486.08355784 113.39002907 C486.09158669 117.87805443 486.09341511 122.36606377 486.09415531 126.85409546 C486.09601309 131.70234094 486.10356409 136.55057825 486.11029053 141.39881897 C486.12384556 151.99220591 486.12989428 162.58558905 486.13430119 173.17898321 C486.13706866 179.80085295 486.14130695 186.42272124 486.14580536 193.04459 C486.15799482 211.39921158 486.16829445 229.75383202 486.17168045 248.10845757 C486.17190002 249.282152 486.17211958 250.45584644 486.1723458 251.66510738 C486.17256408 252.84152144 486.17278236 254.0179355 486.17300725 255.22999847 C486.17345071 257.61363912 486.17389727 259.99727976 486.17434692 262.38092041 C486.17456835 263.56327448 486.17478978 264.74562855 486.17501792 265.96381153 C486.17896292 285.10676672 486.19640931 304.24968377 486.21970645 323.39262424 C486.24346356 343.07333488 486.2558843 362.75402643 486.25704837 382.43475163 C486.25796273 393.47380408 486.26365463 404.51280685 486.28186798 415.55184555 C486.29732798 424.95485475 486.30235484 434.3577989 486.29412988 443.76081841 C486.29024404 448.55114496 486.29105092 453.34134077 486.30518723 458.13165092 C486.41439477 497.45250279 483.23910103 530.62843878 455.18411255 560.50396729 C424.82407368 589.66684374 384.68512373 587.41311561 345.51356149 587.38469195 C340.8495852 587.38240836 336.18561251 587.38593203 331.52163696 587.38867188 C322.40984289 587.39309694 313.2980571 587.39216775 304.18626271 587.38925923 C296.77601085 587.3869926 289.3657613 587.38669812 281.95550919 587.38778305 C280.89725307 587.38793628 279.83899695 587.38808952 278.74867246 587.38824739 C276.59827104 587.38856715 274.44786962 587.38889136 272.2974682 587.38921998 C252.17770532 587.39206514 232.05794701 587.38880276 211.93818487 587.38341962 C194.70391499 587.37895116 177.46965184 587.37972973 160.23538208 587.38433838 C140.18009872 587.38969895 120.12481935 587.3917919 100.06953537 587.38872612 C97.92805171 587.38840759 95.78656805 587.38809322 93.64508438 587.38778305 C92.59166291 587.38762878 91.53824144 587.3874745 90.45289811 587.38731555 C83.05727039 587.38645494 75.66164523 587.3879034 68.26601791 587.3902626 C59.24523718 587.39307723 50.22446514 587.39228734 41.20368539 587.38698186 C36.60813774 587.38436742 32.01260455 587.38330122 27.41705704 587.38663101 C23.19918487 587.38964077 18.98134037 587.38792442 14.76347066 587.38265346 C13.24894158 587.38154905 11.73441009 587.3820757 10.21988259 587.38452925 C2.42595219 587.39617331 -5.33821342 587.25658706 -13.12023735 586.82024956 C-13.80365342 586.78307564 -14.48706949 586.74590172 -15.19119514 586.70760132 C-42.50491155 585.01515223 -65.09882095 571.89377874 -83.43258667 552.13433838 C-87.65589641 547.27216624 -90.90587295 541.84320064 -94.06588745 536.25396729 C-94.55444214 535.41607666 -95.04299683 534.57818604 -95.5463562 533.71490479 C-104.65646519 516.95230425 -106.30152636 498.23284107 -106.68258667 479.5166626 C-106.7010514 478.72166304 -106.71951614 477.92666348 -106.73854041 477.10757303 C-107.40573123 447.77198906 -107.21221921 418.41269499 -107.20118881 389.07124822 C-107.1988797 382.77822362 -107.19862672 376.48520172 -107.19970322 370.19217682 C-107.19985645 369.2861463 -107.20000968 368.38011577 -107.20016756 367.44662978 C-107.20048738 365.6043662 -107.20081159 363.76210263 -107.20114015 361.91983905 C-107.20397049 344.77143927 -107.20074638 327.6230449 -107.19533978 310.474646 C-107.19087093 295.8490004 -107.19165314 281.22336274 -107.19625854 266.59771729 C-107.20164267 249.49176442 -107.2036992 232.38581624 -107.20064628 215.27986264 C-107.20032783 213.44673999 -107.20001345 211.61361734 -107.19970322 209.78049469 C-107.19954894 208.87923953 -107.19939467 207.97798436 -107.19923571 207.04941843 C-107.19838223 200.78211793 -107.19980777 194.51482048 -107.20218277 188.24752045 C-107.20502388 180.58405323 -107.20415352 172.92059621 -107.19890203 165.25713012 C-107.19632241 161.36805568 -107.19515871 157.47899807 -107.19855118 153.58992386 C-107.21059039 138.32194542 -107.11802684 123.05952774 -106.73878203 107.79564753 C-106.70224763 106.30695842 -106.66817165 104.81820636 -106.636894 103.32939753 C-105.97158154 72.68030369 -97.04712637 48.65107059 -75.5697937 26.70318604 C-54.65484528 6.81853064 -28.20989841 -0.08351129 0 0 Z " fill="#EBEBEB" transform="translate(324.0658874511719,216.74603271484375)"/>
<path d="M0 0 C1.70804767 -0.00230799 3.41609434 -0.00548678 5.12413895 -0.00945449 C9.79027704 -0.0177648 14.4563328 -0.01369438 19.12247109 -0.00748205 C24.1655254 -0.00294303 29.2085659 -0.00994855 34.25161743 -0.01544189 C44.12070221 -0.02432246 53.98975652 -0.02241972 63.85884248 -0.01661661 C71.88284785 -0.01209436 79.9068447 -0.01148966 87.93085098 -0.01366425 C89.07418254 -0.01397071 90.21751409 -0.01427718 91.39549205 -0.01459293 C93.71839141 -0.0152324 96.04129077 -0.01588083 98.36419012 -0.01653811 C120.13293195 -0.02223763 141.90165692 -0.01568972 163.67039599 -0.00493738 C182.33269146 0.00399538 200.99496205 0.00244761 219.65725708 -0.0067749 C241.34660029 -0.01748835 263.03592872 -0.02168582 284.72527421 -0.01555037 C287.040097 -0.0149133 289.35491979 -0.01428456 291.66974258 -0.01366425 C293.37799033 -0.01320142 293.37799033 -0.01320142 295.12074813 -0.01272924 C303.13035665 -0.01100535 311.13995577 -0.01391086 319.14956284 -0.01862335 C328.91756889 -0.02424423 338.68554281 -0.02269047 348.4535452 -0.01206186 C353.43348623 -0.00682103 358.41337378 -0.00472121 363.39331436 -0.01136017 C367.95921558 -0.01735488 372.52501415 -0.01398685 377.09090616 -0.00340506 C378.73546836 -0.00118586 380.38003939 -0.00227372 382.02459584 -0.00715664 C407.91246137 -0.07807616 430.37494061 5.89858769 450.93411255 22.25396729 C451.95891724 23.03127197 451.95891724 23.03127197 453.00442505 23.82427979 C471.75821429 38.93360796 482.76863169 62.96824664 485.46146774 86.46437263 C486.17065476 93.78550752 486.07921319 101.12238251 486.07455444 108.46951294 C486.07714189 110.10968569 486.0801561 111.74985781 486.08355784 113.39002907 C486.09158669 117.87805443 486.09341511 122.36606377 486.09415531 126.85409546 C486.09601309 131.70234094 486.10356409 136.55057825 486.11029053 141.39881897 C486.12384556 151.99220591 486.12989428 162.58558905 486.13430119 173.17898321 C486.13706866 179.80085295 486.14130695 186.42272124 486.14580536 193.04459 C486.15799482 211.39921158 486.16829445 229.75383202 486.17168045 248.10845757 C486.17190002 249.282152 486.17211958 250.45584644 486.1723458 251.66510738 C486.17256408 252.84152144 486.17278236 254.0179355 486.17300725 255.22999847 C486.17345071 257.61363912 486.17389727 259.99727976 486.17434692 262.38092041 C486.17456835 263.56327448 486.17478978 264.74562855 486.17501792 265.96381153 C486.17896292 285.10676672 486.19640931 304.24968377 486.21970645 323.39262424 C486.24346356 343.07333488 486.2558843 362.75402643 486.25704837 382.43475163 C486.25796273 393.47380408 486.26365463 404.51280685 486.28186798 415.55184555 C486.29732798 424.95485475 486.30235484 434.3577989 486.29412988 443.76081841 C486.29024404 448.55114496 486.29105092 453.34134077 486.30518723 458.13165092 C486.41439477 497.45250279 483.23910103 530.62843878 455.18411255 560.50396729 C424.82407368 589.66684374 384.68512373 587.41311561 345.51356149 587.38469195 C340.8495852 587.38240836 336.18561251 587.38593203 331.52163696 587.38867188 C322.40984289 587.39309694 313.2980571 587.39216775 304.18626271 587.38925923 C296.77601085 587.3869926 289.3657613 587.38669812 281.95550919 587.38778305 C280.89725307 587.38793628 279.83899695 587.38808952 278.74867246 587.38824739 C276.59827104 587.38856715 274.44786962 587.38889136 272.2974682 587.38921998 C252.17770532 587.39206514 232.05794701 587.38880276 211.93818487 587.38341962 C194.70391499 587.37895116 177.46965184 587.37972973 160.23538208 587.38433838 C140.18009872 587.38969895 120.12481935 587.3917919 100.06953537 587.38872612 C97.92805171 587.38840759 95.78656805 587.38809322 93.64508438 587.38778305 C92.59166291 587.38762878 91.53824144 587.3874745 90.45289811 587.38731555 C83.05727039 587.38645494 75.66164523 587.3879034 68.26601791 587.3902626 C59.24523718 587.39307723 50.22446514 587.39228734 41.20368539 587.38698186 C36.60813774 587.38436742 32.01260455 587.38330122 27.41705704 587.38663101 C23.19918487 587.38964077 18.98134037 587.38792442 14.76347066 587.38265346 C13.24894158 587.38154905 11.73441009 587.3820757 10.21988259 587.38452925 C2.42595219 587.39617331 -5.33821342 587.25658706 -13.12023735 586.82024956 C-13.80365342 586.78307564 -14.48706949 586.74590172 -15.19119514 586.70760132 C-42.50491155 585.01515223 -65.09882095 571.89377874 -83.43258667 552.13433838 C-87.65589641 547.27216624 -90.90587295 541.84320064 -94.06588745 536.25396729 C-94.55444214 535.41607666 -95.04299683 534.57818604 -95.5463562 533.71490479 C-104.65646519 516.95230425 -106.30152636 498.23284107 -106.68258667 479.5166626 C-106.7010514 478.72166304 -106.71951614 477.92666348 -106.73854041 477.10757303 C-107.40573123 447.77198906 -107.21221921 418.41269499 -107.20118881 389.07124822 C-107.1988797 382.77822362 -107.19862672 376.48520172 -107.19970322 370.19217682 C-107.19985645 369.2861463 -107.20000968 368.38011577 -107.20016756 367.44662978 C-107.20048738 365.6043662 -107.20081159 363.76210263 -107.20114015 361.91983905 C-107.20397049 344.77143927 -107.20074638 327.6230449 -107.19533978 310.474646 C-107.19087093 295.8490004 -107.19165314 281.22336274 -107.19625854 266.59771729 C-107.20164267 249.49176442 -107.2036992 232.38581624 -107.20064628 215.27986264 C-107.20032783 213.44673999 -107.20001345 211.61361734 -107.19970322 209.78049469 C-107.19954894 208.87923953 -107.19939467 207.97798436 -107.19923571 207.04941843 C-107.19838223 200.78211793 -107.19980777 194.51482048 -107.20218277 188.24752045 C-107.20502388 180.58405323 -107.20415352 172.92059621 -107.19890203 165.25713012 C-107.19632241 161.36805568 -107.19515871 157.47899807 -107.19855118 153.58992386 C-107.21059039 138.32194542 -107.11802684 123.05952774 -106.73878203 107.79564753 C-106.70224763 106.30695842 -106.66817165 104.81820636 -106.636894 103.32939753 C-105.97158154 72.68030369 -97.04712637 48.65107059 -75.5697937 26.70318604 C-54.65484528 6.81853064 -28.20989841 -0.08351129 0 0 Z M-64.87838745 56.12896729 C-75.16229956 70.45752208 -77.52264547 85.07798777 -77.4535675 102.30639648 C-77.45774675 104.01302097 -77.46322749 105.71964267 -77.46988732 107.42625928 C-77.48428346 112.08856482 -77.48011549 116.75069271 -77.4727205 121.41300774 C-77.46797658 126.45202141 -77.48050957 131.49099733 -77.49073792 136.52999878 C-77.50790797 146.39174135 -77.50876955 156.25342015 -77.50352501 166.11517379 C-77.49947831 174.13439865 -77.50093281 182.15360471 -77.50627327 190.17282867 C-77.50702169 191.31558278 -77.50777011 192.45833689 -77.50854122 193.63571991 C-77.51007275 195.95748781 -77.5116111 198.2792557 -77.51315618 200.60102358 C-77.52687504 222.36029389 -77.52144812 244.1195282 -77.50997097 265.87879768 C-77.5000419 285.76476346 -77.51297475 305.65063615 -77.53690516 325.53658757 C-77.56131628 345.97671871 -77.57089891 366.41680653 -77.56425244 386.85695195 C-77.56076435 398.32398132 -77.56296501 409.79093914 -77.58050346 421.25795746 C-77.59525071 431.02081212 -77.59582804 440.78354485 -77.57843255 450.54639718 C-77.5699405 455.52259387 -77.56772896 460.498573 -77.58308411 465.47475815 C-77.59699504 470.03963499 -77.59208636 474.60410918 -77.57284487 479.1689631 C-77.56910406 480.81086901 -77.57195076 482.45280766 -77.58245652 484.09468421 C-77.66361418 497.7618016 -75.9703728 511.20171107 -69.50338745 523.50396729 C-69.16388062 524.1588916 -68.82437378 524.81381592 -68.47457886 525.48858643 C-60.0801341 540.88715776 -45.13065612 552.0359974 -28.3947112 557.05504274 C-19.1460576 559.42398062 -10.2950146 559.68213436 -0.83073425 559.64837646 C0.88357799 559.65327411 2.59788694 559.65946794 4.31219035 559.66683435 C8.99117276 559.68314635 13.66998571 559.68093386 18.34898651 559.67545938 C23.40779334 559.67277833 28.46655609 559.68734115 33.52534485 559.69955444 C43.42438054 559.72056579 53.32335761 559.72515174 63.22241297 559.72336656 C71.27306191 559.72205669 79.32369263 559.72587454 87.37433815 559.73329163 C89.6971942 559.73539092 92.02005025 559.73748853 94.3429063 559.73958445 C95.49922291 559.74062797 96.65553952 559.7416715 97.84689603 559.74274665 C119.69588458 559.76163193 141.54483952 559.76060417 163.39383284 559.75377733 C183.35599922 559.74820396 203.31803718 559.76902161 223.28017356 559.80213779 C243.8039683 559.83592001 264.3277016 559.85103743 284.85152465 559.84642076 C296.36333594 559.84418056 307.87502857 559.84935347 319.38681602 559.87431335 C329.18840018 559.89538511 338.98980061 559.89886037 348.79139247 559.88001376 C353.78611801 559.87089188 358.78050153 559.86960347 363.77519989 559.89036942 C368.35933448 559.90921655 372.94285022 559.90442391 377.52696226 559.8818236 C379.17358659 559.87767221 380.82025967 559.88171932 382.46683224 559.89541954 C398.91823237 560.02283562 414.27744874 556.88592045 427.93411255 547.25396729 C428.86610474 546.60814697 429.79809692 545.96232666 430.7583313 545.29693604 C446.5053498 533.4592192 455.1483087 515.49994479 457.93411255 496.25396729 C458.3354374 490.59609534 458.34092812 484.9655111 458.31506348 479.29597473 C458.31852747 477.62403511 458.32329699 475.95209777 458.32924521 474.28016514 C458.34168311 469.72305461 458.33561794 465.16613435 458.32628655 460.60902345 C458.31946657 455.6798169 458.32999188 450.75064184 458.33822632 445.82144165 C458.3515348 436.17954878 458.34869871 426.53772615 458.3399884 416.89583058 C458.33320049 409.0558982 458.33229991 401.21598543 458.33555984 393.37605095 C458.33601954 392.25825735 458.33647924 391.14046375 458.33695287 389.98879762 C458.3379121 387.71768006 458.33888474 385.4465625 458.33987065 383.17544495 C458.34841619 361.9011935 458.33860373 340.62698089 458.32246955 319.35273581 C458.30906898 301.11886578 458.31139395 282.88505307 458.32522583 264.65118408 C458.34129958 243.45219875 458.34759036 222.25324743 458.33838904 201.05425686 C458.33743344 198.79140437 458.33649033 196.52855188 458.33555984 194.26569939 C458.33486561 192.59586316 458.33486561 192.59586316 458.33415734 190.89229288 C458.3315727 183.06697132 458.33592713 175.24167143 458.3429985 167.41635323 C458.35143374 157.87238727 458.34909099 148.32849528 458.33315627 138.78453774 C458.32530047 133.91987569 458.32213579 129.05533673 458.33210373 124.19067574 C458.3411073 119.72899403 458.33602549 115.2675484 458.32017107 110.80588781 C458.31684705 109.20039962 458.31846304 107.59489107 458.32579844 105.98941619 C458.40621595 86.91039934 455.02340932 68.72339489 442.93411255 53.25396729 C442.27411255 53.25396729 441.61411255 53.25396729 440.93411255 53.25396729 C440.68661255 52.67388916 440.43911255 52.09381104 440.18411255 51.49615479 C433.28672391 39.12396392 416.65697032 33.33965488 403.93411255 29.25396729 C399.47846396 28.34693105 395.24518252 28.1245103 390.70242691 28.11415958 C389.63898856 28.10973245 389.63898856 28.10973245 388.5540666 28.10521588 C386.17831607 28.09655355 383.80261438 28.09494685 381.42684937 28.09333801 C379.70620698 28.08860503 377.98556571 28.08345385 376.26492572 28.07792038 C371.53597597 28.06403144 366.80703391 28.05643553 362.07806897 28.04994738 C358.02186729 28.04357018 353.96567819 28.03350092 349.90948436 28.02338672 C336.5456633 27.99008262 323.18183459 27.96854395 309.81798565 27.95018688 C306.33668982 27.94539 302.85539429 27.9404069 299.37409878 27.93538165 C277.74323704 27.9044065 256.1123726 27.87772862 234.4814949 27.86096287 C229.47237391 27.85701354 224.46325297 27.85301052 219.45413208 27.84893799 C218.20917909 27.84792963 216.9642261 27.84692127 215.68154725 27.84588235 C195.52816511 27.82888682 175.374906 27.78778924 155.22158387 27.736915 C134.51722018 27.68508098 113.81291968 27.65601292 93.10849166 27.64876598 C81.48922373 27.64411086 69.87015722 27.62943431 58.25095367 27.58902168 C48.35221382 27.5546343 38.45371177 27.54081759 28.55491564 27.55344582 C23.5095372 27.5592524 18.46466112 27.55555034 13.41935921 27.52527618 C8.78862056 27.497718 4.15873649 27.49855802 -0.4720228 27.52078664 C-2.13569173 27.52398338 -3.79941994 27.51729676 -5.46299121 27.49898941 C-29.59787066 27.24977007 -49.86805675 36.95047864 -64.87838745 56.12896729 Z " fill="#0F0F0F" transform="translate(324.0658874511719,216.74603271484375)"/>
<path d="M0 0 C9.34383974 7.40420036 16.43232675 19.16560389 18 31 C19.16141104 47.22657145 16.23710264 61.38845902 5.75 74.25 C-3.28491496 83.91617539 -16.4545363 91.39346533 -29.75 92.23828125 C-46.32097942 92.67333286 -59.1871802 88.25936765 -71.6875 77.0625 C-81.73410808 66.56415594 -86.43197771 52.23727365 -86.36352539 37.98608398 C-86.03347695 23.54169717 -80.22407799 11.77941354 -69.9375 1.75 C-49.92128634 -15.60845915 -21.0336863 -15.8853444 0 0 Z " fill="#0F0E0F" transform="translate(411,606)"/>
<path d="M0 0 C1.38058594 -0.01836914 1.38058594 -0.01836914 2.7890625 -0.03710938 C15.64077102 -0.06464875 28.18473728 5.40252666 37.625 14.1875 C47.85958818 25.12039697 53.20615014 38.19431896 52.8671875 53.08984375 C51.81689615 66.52340887 45.78769687 81.07186887 35.625 90.1875 C21.76833471 101.50100374 8.08430676 104.51202465 -9.375 103.1875 C-22.07245172 100.85330622 -33.2637909 93.05868844 -41.375 83.1875 C-48.19999253 73.2421315 -51.91839416 64.19614695 -51.6875 52.125 C-51.69072266 51.27873047 -51.69394531 50.43246094 -51.69726562 49.56054688 C-51.58645939 36.49548412 -46.67212173 24.78201636 -37.640625 15.28515625 C-26.13028008 4.62816448 -15.48407094 0.01075283 0 0 Z " fill="#0E0D0E" transform="translate(650.375,317.8125)"/>
<path d="M0 0 C10.43074263 8.12467801 19.69056786 18.58527186 21.66796875 32.078125 C21.88861614 35.45410293 21.95890725 38.82043355 21.98046875 42.203125 C21.9861084 43.05052246 21.99174805 43.89791992 21.99755859 44.77099609 C21.84838327 57.7290225 16.69145797 69.77723683 7.73046875 79.23828125 C-4.26022744 89.93452728 -17.76216197 94.42975741 -33.625 94.296875 C-46.86503598 93.51558731 -58.38125415 88.17099636 -67.625 78.73828125 C-78.84265926 65.94225788 -82.34957733 51.95088911 -81.33203125 35.078125 C-78.99208999 20.92792905 -71.57110818 9.68883666 -60.45703125 0.765625 C-43.19264341 -11.41286101 -17.48313791 -12.00861998 0 0 Z " fill="#0E0E0E" transform="translate(543.33203125,464.921875)"/>
<path d="M0 0 C0.66 0 1.32 0 2 0 C1.67 103.29 1.34 206.58 1 313 C0.67 313 0.34 313 0 313 C-0.86042982 308.55324082 -1.1167515 304.36600569 -1.09765625 299.83984375 C-1.09619598 299.14944504 -1.09473572 298.45904633 -1.0932312 297.74772644 C-1.08944311 296.25655393 -1.08334564 294.76538584 -1.07516479 293.27423096 C-1.06230081 290.90074769 -1.05585876 288.52732099 -1.05102539 286.15380859 C-1.03771159 280.2530425 -1.01364922 274.35232966 -0.98962402 268.45159912 C-0.96971828 263.4690479 -0.95414431 258.48651784 -0.94406128 253.50393677 C-0.93767929 251.19000411 -0.92516764 248.87616039 -0.91235352 246.56225586 C-0.88590462 238.53615273 -1.14051118 230.65461857 -1.88110352 222.65576172 C-2 220 -2 220 -1 218 C-1.23904359 216.41144669 -1.48083182 214.82327585 -1.73339844 213.23681641 C-2.30837977 208.41265985 -2.14317392 203.53861445 -2.125 198.6875 C-2.1237915 197.38159912 -2.12258301 196.07569824 -2.12133789 194.73022461 C-2.09916365 186.7099592 -1.95736529 178.69687947 -1.73828125 170.6796875 C-1.21431681 150.95822424 -0.92717286 131.26975886 -1.19140625 111.54296875 C-1.20278563 110.69120119 -1.214165 109.83943363 -1.22588921 108.96185493 C-1.34260375 100.41682404 -1.47700139 91.87222139 -1.63648891 83.32788181 C-2.06359401 60.18719162 -1.80285568 37.13098957 -1 14 C-1.66 14 -2.32 14 -3 14 C-3 13.34 -3 12.68 -3 12 C-2.34 12 -1.68 12 -1 12 C-1 10.02 -1 8.04 -1 6 C-1.66 6 -2.32 6 -3 6 C-2 3 -2 3 0 0 Z " fill="#050505" transform="translate(245,301)"/>
<path d="M0 0 C0.99 0.66 1.98 1.32 3 2 C-9.52986787 8.23329285 -21.46621151 9.43899209 -35.23602295 9.36076355 C-36.96229801 9.36207378 -38.68857248 9.3647042 -40.4148438 9.36853105 C-45.13086379 9.37520519 -49.84667746 9.36328588 -54.56267118 9.34819686 C-59.65862207 9.33519622 -64.75456209 9.3396288 -69.8505249 9.34190369 C-78.67046599 9.34347388 -87.4903403 9.33409126 -96.31026459 9.31719017 C-109.06225777 9.29277025 -121.8142188 9.28499184 -134.56623283 9.2812262 C-155.25738965 9.27466641 -175.94851091 9.25471806 -196.63964844 9.22631836 C-216.73469872 9.19876556 -236.82973932 9.17753795 -256.92480469 9.16479492 C-258.78396091 9.16361267 -258.78396091 9.16361267 -260.68067583 9.16240653 C-266.8988018 9.15849131 -273.11692784 9.15470021 -279.33505392 9.15097082 C-330.89006052 9.11988963 -382.44502852 9.06706669 -434 9 C-434 8.67 -434 8.34 -434 8 C-297.05 8 -160.1 8 -19 8 C-18.34 6.02 -17.68 4.04 -17 2 C-14 3 -11 4 -8 5 C-7.67 3.68 -7.34 2.36 -7 1 C-7 1.99 -7 2.98 -7 4 C-6.34 4 -5.68 4 -5 4 C-5 3.34 -5 2.68 -5 2 C-3.02 2.495 -3.02 2.495 -1 3 C-0.67 2.01 -0.34 1.02 0 0 Z " fill="#C5C5C5" transform="translate(740,767)"/>
<path d="M0 0 C0.99 0.66 1.98 1.32 3 2 C-9.08706229 8.01300826 -20.60612311 9.44283894 -33.95800781 9.34057617 C-35.52626021 9.33972804 -37.09451379 9.34020867 -38.6627655 9.34190369 C-42.88310145 9.3427578 -47.10317704 9.32522763 -51.32345295 9.30418181 C-55.74766502 9.28531673 -60.17188429 9.28365688 -64.59613037 9.28010559 C-72.95749763 9.27081382 -81.31874599 9.24623923 -89.6800611 9.21605712 C-99.2061389 9.18242337 -108.73222265 9.16600462 -118.25834513 9.15097082 C-137.83896289 9.11968685 -157.41947393 9.06698266 -177 9 C-177 8.67 -177 8.34 -177 8 C-124.86 8 -72.72 8 -19 8 C-18.34 6.02 -17.68 4.04 -17 2 C-14 3 -11 4 -8 5 C-7.67 3.68 -7.34 2.36 -7 1 C-7 1.99 -7 2.98 -7 4 C-6.34 4 -5.68 4 -5 4 C-5 3.34 -5 2.68 -5 2 C-3.02 2.495 -3.02 2.495 -1 3 C-0.67 2.01 -0.34 1.02 0 0 Z " fill="#B6B6B6" transform="translate(740,767)"/>
<path d="M0 0 C0.66 0.33 1.32 0.66 2 1 C-3.74310233 11.12170871 -8.98097226 17.92178984 -19 24 C-19 23.34 -19 22.68 -19 22 C-19.66 21.67 -20.32 21.34 -21 21 C-20.01 20.29875 -19.02 19.5975 -18 18.875 C-15.30900395 16.67040465 -15.04028076 16.35581339 -14.625 12.6875 C-14.74875 11.800625 -14.8725 10.91375 -15 10 C-14.01 10.33 -13.02 10.66 -12 11 C-9.36195411 10.60602665 -9.36195411 10.60602665 -7 10 C-7 7.36 -7 4.72 -7 2 C-6.401875 2.226875 -5.80375 2.45375 -5.1875 2.6875 C-4.465625 2.790625 -3.74375 2.89375 -3 3 C-1.22809091 1.64555699 -1.22809091 1.64555699 0 0 Z " fill="#1B1A1B" transform="translate(696,390)"/>
<path d="M0 0 C0.66 0.33 1.32 0.66 2 1 C-5.63540409 14.2130397 -13.90600718 25.10293968 -28 32 C-28.66 32 -29.32 32 -30 32 C-29.45276317 28.62537285 -28.9451 26.91765 -27 24 C-25 24 -23 24 -21 24 C-20.34 22.02 -19.68 20.04 -19 18 C-19.66 17.34 -20.32 16.68 -21 16 C-19.66666667 16.33333333 -18.33333333 16.66666667 -17 17 C-16.29359375 17.17660156 -15.5871875 17.35320313 -14.859375 17.53515625 C-14.24578125 17.68855469 -13.6321875 17.84195313 -13 18 C-7.75918476 12.44907735 -3.72455235 6.65780787 0 0 Z " fill="#BFBFBF" transform="translate(773,736)"/>
<path d="M0 0 C0.33 0 0.66 0 1 0 C1 26.07 1 52.14 1 79 C0.01 79 -0.98 79 -2 79 C-1.83628906 78.01112793 -1.67257813 77.02225586 -1.50390625 76.00341797 C-0.93232773 71.98107278 -0.89001509 68.00151635 -0.9375 63.9453125 C-0.94607574 62.35945698 -0.95453432 60.77360083 -0.96289062 59.18774414 C-0.96909424 58.36146515 -0.97529785 57.53518616 -0.98168945 56.68386841 C-1.11704734 37.76782929 -0.71983568 18.90143008 0 0 Z " fill="#040404" transform="translate(245,615)"/>
<path d="M0 0 C4.74328599 4.74328599 5.20495273 13.55520846 5.375 20 C5.22627895 26.24628411 3.77671845 32.03530234 2 38 C1.34 36.68 0.68 35.36 0 34 C0.66 34 1.32 34 2 34 C2.10103455 28.39258264 1.76082036 23.05193239 1 17.5 C0.85691406 16.40945313 0.85691406 16.40945313 0.7109375 15.296875 C0.47853833 13.53064133 0.23993362 11.76522594 0 10 C0.66 9.67 1.32 9.34 2 9 C1.67 8.01 1.34 7.02 1 6 C0.34 6.66 -0.32 7.32 -1 8 C-1.33 6.68 -1.66 5.36 -2 4 C-1.34 4 -0.68 4 0 4 C0 2.68 0 1.36 0 0 Z " fill="#313031" transform="translate(698,348)"/>
<path d="M0 0 C0.33 0 0.66 0 1 0 C1.04955115 6.01398527 1.08579131 12.02785086 1.10986328 18.04199219 C1.11990179 20.08660961 1.13353542 22.13121274 1.15087891 24.17578125 C1.1752217 27.11982761 1.18650478 30.06368363 1.1953125 33.0078125 C1.20563507 33.9174173 1.21595764 34.82702209 1.22659302 35.76419067 C1.22743991 40.58804539 0.88400471 44.46926202 -1 49 C-1.33 49 -1.66 49 -2 49 C-2 42.4 -2 35.8 -2 29 C-1.67 29 -1.34 29 -1 29 C-0.67 19.43 -0.34 9.86 0 0 Z " fill="#DDDDDD" transform="translate(780,520)"/>
<path d="M0 0 C0.99 1.32 1.98 2.64 3 4 C0.40163864 5.36645701 -2.20265556 6.71830669 -4.8125 8.0625 C-5.55048828 8.45244141 -6.28847656 8.84238281 -7.04882812 9.24414062 C-7.76103516 9.60830078 -8.47324219 9.97246094 -9.20703125 10.34765625 C-9.8616333 10.68804932 -10.51623535 11.02844238 -11.19067383 11.37915039 C-13 12 -13 12 -16 11 C-15.34 11 -14.68 11 -14 11 C-14.33 10.01 -14.66 9.02 -15 8 C-14.67 7.34 -14.34 6.68 -14 6 C-11.9375 5.375 -11.9375 5.375 -10 5 C-10 4.34 -10 3.68 -10 3 C-9.21625 3.185625 -8.4325 3.37125 -7.625 3.5625 C-5.02910225 4.25962266 -5.02910225 4.25962266 -3 3 C-2.34 3.33 -1.68 3.66 -1 4 C-0.67 2.68 -0.34 1.36 0 0 Z " fill="#191819" transform="translate(403,685)"/>
<path d="M0 0 C0.99 0.66 1.98 1.32 3 2 C-4.222277 5.37367134 -10.85353705 8.39738844 -19 8 C-18.34 6.02 -17.68 4.04 -17 2 C-14 3 -11 4 -8 5 C-7.67 3.68 -7.34 2.36 -7 1 C-7 1.99 -7 2.98 -7 4 C-6.34 4 -5.68 4 -5 4 C-5 3.34 -5 2.68 -5 2 C-3.68 2.33 -2.36 2.66 -1 3 C-0.67 2.01 -0.34 1.02 0 0 Z " fill="#C2C2C2" transform="translate(740,767)"/>
<path d="M0 0 C0.99 0.33 1.98 0.66 3 1 C-1.98142172 7.64189563 -7.99272839 11.63462853 -15 16 C-15.33 15.01 -15.66 14.02 -16 13 C-14.35 11.35 -12.7 9.7 -11 8 C-10.34 8.33 -9.68 8.66 -9 9 C-8.67 8.67 -8.34 8.34 -8 8 C-7.34 8 -6.68 8 -6 8 C-6 7.34 -6 6.68 -6 6 C-5.01 6 -4.02 6 -3 6 C-2.87625 5.38125 -2.7525 4.7625 -2.625 4.125 C-2 2 -2 2 0 0 Z " fill="#1F1E1F" transform="translate(552,538)"/>
<path d="M0 0 C0.33 0.66 0.66 1.32 1 2 C-0.07674702 4.28258633 -1.19546116 6.4356434 -2.4375 8.625 C-2.77587891 9.23601563 -3.11425781 9.84703125 -3.46289062 10.4765625 C-4.30146192 11.988353 -5.14982577 13.49470399 -6 15 C-7.32 14.67 -8.64 14.34 -10 14 C-9.26420788 12.53444684 -8.51074874 11.07775513 -7.75 9.625 C-7.33234375 8.81289063 -6.9146875 8.00078125 -6.484375 7.1640625 C-4.83045183 4.75281661 -3.5803501 4.22619943 -1 3 C-0.67 2.01 -0.34 1.02 0 0 Z " fill="#242325" transform="translate(563,521)"/>
<path d="M0 0 C0.99 0.33 1.98 0.66 3 1 C2.6875 3.375 2.6875 3.375 2 6 C1.01 6.66 0.02 7.32 -1 8 C-1.72965366 10.56282742 -1.72965366 10.56282742 -2 13 C-2.99 13.33 -3.98 13.66 -5 14 C-5 13.34 -5 12.68 -5 12 C-5.66 11.67 -6.32 11.34 -7 11 C-6.57847656 10.37351562 -6.15695312 9.74703125 -5.72265625 9.1015625 C-4.90087891 7.87566406 -4.90087891 7.87566406 -4.0625 6.625 C-3.24458984 5.40683594 -3.24458984 5.40683594 -2.41015625 4.1640625 C-0.98906121 2.07280816 -0.98906121 2.07280816 0 0 Z " fill="#D5D5D5" transform="translate(560,529)"/>
<path d="M0 0 C0 0.66 0 1.32 0 2 C0.66 2 1.32 2 2 2 C2 2.66 2 3.32 2 4 C0.54400391 3.76990234 0.54400391 3.76990234 -0.94140625 3.53515625 C-5.26219894 2.91790015 -9.58141318 2.66519605 -13.9375 2.4375 C-14.71673828 2.39431641 -15.49597656 2.35113281 -16.29882812 2.30664062 C-18.19907117 2.20171923 -20.09951669 2.1004755 -22 2 C-22 1.67 -22 1.34 -22 1 C-14.64424835 0.29223008 -7.3905476 -0.14715692 0 0 Z " fill="#AFAFAF" transform="translate(392,593)"/>
<path d="M0 0 C0.66 0.33 1.32 0.66 2 1 C1.67 1.33 1.34 1.66 1 2 C3.27076842 2.02699725 5.54162821 2.04639453 7.8125 2.0625 C9.70935547 2.07990234 9.70935547 2.07990234 11.64453125 2.09765625 C14.99605237 2.16159116 14.99605237 2.16159116 18 1 C20.1875 1.9375 20.1875 1.9375 22 3 C17.14451137 4.24883967 12.35265742 4.18372905 7.375 4.1875 C6.08722656 4.20586914 6.08722656 4.20586914 4.7734375 4.22460938 C3.9484375 4.22654297 3.1234375 4.22847656 2.2734375 4.23046875 C1.52497559 4.23457764 0.77651367 4.23868652 0.00537109 4.24291992 C-2 4 -2 4 -5 2 C-2.625 0.9375 -2.625 0.9375 0 0 Z " fill="#282627" transform="translate(643,417)"/>
<path d="M0 0 C2.66666667 2.66666667 5.33333333 5.33333333 8 8 C7 11 7 11 5 12 C2.69 8.37 0.38 4.74 -2 1 C-1.34 0.67 -0.68 0.34 0 0 Z " fill="#E1E1E0" transform="translate(555,473)"/>
<path d="M0 0 C2 1.5625 2 1.5625 4 4 C4.25 7.75 4.25 7.75 4 11 C3.01 11.33 2.02 11.66 1 12 C0.63762737 10.37681021 0.28534843 8.7513642 -0.0625 7.125 C-0.25972656 6.22007812 -0.45695312 5.31515625 -0.66015625 4.3828125 C-1 2 -1 2 0 0 Z " fill="#E1E1E1" transform="translate(427,625)"/>
<path d="M0 0 C2.64752004 2.57784846 4.94432065 4.91648098 7 8 C3.25 9.125 3.25 9.125 1 8 C1 7.34 1 6.68 1 6 C0.34 6 -0.32 6 -1 6 C-0.67 4.02 -0.34 2.04 0 0 Z " fill="#181818" transform="translate(260,749)"/>
<path d="M0 0 C0 3.77910478 -0.99703962 4.46106101 -3.5 7.1875 C-4.47453125 8.26064453 -4.47453125 8.26064453 -5.46875 9.35546875 C-5.9740625 9.89816406 -6.479375 10.44085937 -7 11 C-7 9 -7 7 -7 5 C-6.34 5 -5.68 5 -5 5 C-5.33 4.01 -5.66 3.02 -6 2 C-5.38125 1.855625 -4.7625 1.71125 -4.125 1.5625 C-1.96741678 1.06847775 -1.96741678 1.06847775 0 0 Z " fill="#D8D8D8" transform="translate(767,744)"/>
<path d="M0 0 C0.66 0.33 1.32 0.66 2 1 C1.00233891 3.49415272 0.31383315 4.78740335 -1.9375 6.3125 C-4 7 -4 7 -7 6 C-7 5.01 -7 4.02 -7 3 C-4.69631264 1.93347808 -2.35981813 0.93578995 0 0 Z " fill="#D6D5D5" transform="translate(672,416)"/>
<path d="M0 0 C4.95 0.99 4.95 0.99 10 2 C10 2.66 10 3.32 10 4 C3.25 5.125 3.25 5.125 1 4 C0.67 2.68 0.34 1.36 0 0 Z " fill="#E1E1E1" transform="translate(631,418)"/>
<path d="M0 0 C0.66 -0.33 1.32 -0.66 2 -1 C1.3125 0.9375 1.3125 0.9375 0 3 C-3.29427581 4.09809194 -4.66411172 4.11196276 -8 3 C-9.33106622 2.65772583 -10.66400079 2.32248257 -12 2 C-10.75579353 1.4654744 -9.50429064 0.94791389 -8.25 0.4375 C-7.55390625 0.14746094 -6.8578125 -0.14257812 -6.140625 -0.44140625 C-3.67902961 -1.08375687 -2.40566596 -0.68227921 0 0 Z " fill="#D3D3D3" transform="translate(541,554)"/>
<path d="M0 0 C0.66 0 1.32 0 2 0 C2.33 1.98 2.66 3.96 3 6 C4.32 5.67 5.64 5.34 7 5 C6.67 5.99 6.34 6.98 6 8 C1.89041233 6.54955729 -1.43258745 4.48889248 -5 2 C-4.34 1.67 -3.68 1.34 -3 1 C-2.01 1.33 -1.02 1.66 0 2 C0 1.34 0 0.68 0 0 Z " fill="#2F2F2F" transform="translate(485,546)"/>
<path d="M0 0 C0.99 0.33 1.98 0.66 3 1 C-0.30015998 5.13937592 -3.17324411 8.58662205 -8 11 C-8 10.01 -8 9.02 -8 8 C-7.34 8 -6.68 8 -6 8 C-6 7.34 -6 6.68 -6 6 C-5.01 6 -4.02 6 -3 6 C-2.814375 5.071875 -2.814375 5.071875 -2.625 4.125 C-2 2 -2 2 0 0 Z " fill="#303030" transform="translate(552,538)"/>
<path d="M0 0 C2.31 0 4.62 0 7 0 C7 0.99 7 1.98 7 3 C2.05 3 -2.9 3 -8 3 C-8 2.67 -8 2.34 -8 2 C-5.36 1.67 -2.72 1.34 0 1 C0 0.67 0 0.34 0 0 Z " fill="#E0E0E0" transform="translate(368,769)"/>
<path d="M0 0 C0.66 1.32 1.32 2.64 2 4 C0.71034824 5.37562854 -0.62689293 6.70766393 -2 8 C-2.66 8 -3.32 8 -4 8 C-5.67745682 8.63903117 -7.34561387 9.30341637 -9 10 C-8.2575 9.278125 -7.515 8.55625 -6.75 7.8125 C-4.30709485 5.31407427 -2.1318953 2.76356798 0 0 Z " fill="#D5D5D5" transform="translate(418,677)"/>
<path d="M0 0 C0.33 0.66 0.66 1.32 1 2 C1.99 2.33 2.98 2.66 4 3 C0.27034861 5.03435531 -1.66905042 6 -6 6 C-6 5.34 -6 4.68 -6 4 C-4.03852126 2.61061923 -2.03833424 1.2739589 0 0 Z " fill="#212121" transform="translate(296,243)"/>
<path d="M0 0 C4.875 4.75 4.875 4.75 6 7 C5.67 7.66 5.34 8.32 5 9 C2.09303901 7.93411431 1.15567038 7.29651501 -0.3125 4.5 C-1 2 -1 2 0 0 Z " fill="#E2E2E2" transform="translate(474,541)"/>
<path d="M0 0 C1.31625194 2.63250388 0.74813658 3.80179056 0.0625 6.625 C-0.13214844 7.44226563 -0.32679688 8.25953125 -0.52734375 9.1015625 C-0.68332031 9.72804688 -0.83929687 10.35453125 -1 11 C-1.99 11 -2.98 11 -4 11 C-3.67 8.36 -3.34 5.72 -3 3 C-2.34 3 -1.68 3 -1 3 C-0.67 2.01 -0.34 1.02 0 0 Z " fill="#060606" transform="translate(605,348)"/>
<path d="M0 0 C0.33 2.97 0.66 5.94 1 9 C0.34 9 -0.32 9 -1 9 C-1.33 9.66 -1.66 10.32 -2 11 C-3.66486298 5.6549136 -3.66486298 5.6549136 -4 3 C-2.03125 0 -2.03125 0 0 0 Z " fill="#D8D8D8" transform="translate(463,514)"/>
<path d="M0 0 C0.33 0.66 0.66 1.32 1 2 C1.99 2.33 2.98 2.66 4 3 C1.69 4.98 -0.62 6.96 -3 9 C-2.44271087 5.65626525 -1.64826111 2.96687001 0 0 Z " fill="#E2E2E2" transform="translate(475,467)"/>
<path d="M0 0 C0.66 0.33 1.32 0.66 2 1 C2 1.99 2 2.98 2 4 C-0.5 5.6875 -0.5 5.6875 -3 7 C-3 6.34 -3 5.68 -3 5 C-3.66 4.67 -4.32 4.34 -5 4 C-3.35 2.68 -1.7 1.36 0 0 Z " fill="#262526" transform="translate(680,407)"/>
<path d="M0 0 C1.32 0.66 2.64 1.32 4 2 C2.35 3.65 0.7 5.3 -1 7 C-1.66 5.68 -2.32 4.36 -3 3 C-2.01 2.01 -1.02 1.02 0 0 Z " fill="#252424" transform="translate(409,681)"/>
<path d="M0 0 C0.33 0 0.66 0 1 0 C1 3.96 1 7.92 1 12 C-1.97 11.505 -1.97 11.505 -5 11 C-3.68 10.67 -2.36 10.34 -1 10 C-1.33 9.01 -1.66 8.02 -2 7 C-1.40206327 4.64811553 -0.74118205 2.31074405 0 0 Z " fill="#1E1C1E" transform="translate(698,377)"/>
<path d="M0 0 C1.98 0.66 3.96 1.32 6 2 C5.67 3.32 5.34 4.64 5 6 C2.525 5.01 2.525 5.01 0 4 C0 2.68 0 1.36 0 0 Z " fill="#E4E4E4" transform="translate(490,554)"/>
<path d="M0 0 C1.98 0 3.96 0 6 0 C6.33 0.99 6.66 1.98 7 3 C4.36 3.33 1.72 3.66 -1 4 C-0.67 2.68 -0.34 1.36 0 0 Z " fill="#1C1A1B" transform="translate(522,554)"/>
<path d="M0 0 C0.33 0.66 0.66 1.32 1 2 C-1.64 4.31 -4.28 6.62 -7 9 C-7.66 8.67 -8.32 8.34 -9 8 C-8.07038578 6.84775972 -7.1309875 5.70340824 -6.1875 4.5625 C-5.66542969 3.92441406 -5.14335938 3.28632813 -4.60546875 2.62890625 C-3 1 -3 1 0 0 Z " fill="#262626" transform="translate(616,332)"/>
<path d="M0 0 C0.25 2.75 0.25 2.75 0 6 C-2 8.375 -2 8.375 -4 10 C-4 8.35 -4 6.7 -4 5 C-3.34 5 -2.68 5 -2 5 C-2.33 3.68 -2.66 2.36 -3 1 C-1 0 -1 0 0 0 Z " fill="#1B1919" transform="translate(262,265)"/>
<path d="M0 0 C1.32 0.66 2.64 1.32 4 2 C4.33 1.34 4.66 0.68 5 0 C5.99 0.66 6.98 1.32 8 2 C7.01 2.495 7.01 2.495 6 3 C6.33 3.66 6.66 4.32 7 5 C4.03 4.01 1.06 3.02 -2 2 C-1.34 1.34 -0.68 0.68 0 0 Z " fill="#333232" transform="translate(355,691)"/>
<path d="M0 0 C1.33333333 0 2.66666667 0 4 0 C4 1.98 4 3.96 4 6 C3.34 6 2.68 6 2 6 C1.67 6.66 1.34 7.32 1 8 C0.17361624 5.10765685 0 3.11257569 0 0 Z " fill="#F1F1F1" transform="translate(322,659)"/>
<path d="M0 0 C0 0.66 0 1.32 0 2 C-0.66 2 -1.32 2 -2 2 C-2.33 2.99 -2.66 3.98 -3 5 C-4.9375 5.8125 -4.9375 5.8125 -7 6 C-7.66 5.34 -8.32 4.68 -9 4 C-2.25 0 -2.25 0 0 0 Z " fill="#1E1E1E" transform="translate(356,599)"/>
<path d="M0 0 C0.99 0.33 1.98 0.66 3 1 C2.45773019 4.79588866 0.79872437 6.47211993 -2 9 C-1.51421457 5.87709365 -1.0013988 3.00419641 0 0 Z " fill="#232323" transform="translate(466,486)"/>
<path d="M0 0 C0.99 0.33 1.98 0.66 3 1 C1.71186658 1.83878455 0.41936744 2.67086783 -0.875 3.5 C-1.59429688 3.9640625 -2.31359375 4.428125 -3.0546875 4.90625 C-5 6 -5 6 -7 6 C-6.67 5.01 -6.34 4.02 -6 3 C-3.5 1.875 -3.5 1.875 -1 1 C-0.67 0.67 -0.34 0.34 0 0 Z " fill="#B9B9B9" transform="translate(750,762)"/>
<path d="M0 0 C1.485 0.99 1.485 0.99 3 2 C3.66 1.34 4.32 0.68 5 0 C4.67 2.31 4.34 4.62 4 7 C3.01 6.67 2.02 6.34 1 6 C0.67 4.02 0.34 2.04 0 0 Z " fill="#080909" transform="translate(335,673)"/>
<path d="M0 0 C1.65 0 3.3 0 5 0 C5.33 0.99 5.66 1.98 6 3 C5.01 4.485 5.01 4.485 4 6 C2.62437146 4.71034824 1.29233607 3.37310707 0 2 C0 1.34 0 0.68 0 0 Z " fill="#D8D8D8" transform="translate(688,332)"/>
<path d="M0 0 C2.97 1.98 2.97 1.98 6 4 C3 6 3 6 0.8125 5.625 C0.214375 5.41875 -0.38375 5.2125 -1 5 C-0.67 3.35 -0.34 1.7 0 0 Z " fill="#201F20" transform="translate(682,328)"/>
<path d="M0 0 C2.31 0 4.62 0 7 0 C6.67 0.99 6.34 1.98 6 3 C4.35 3 2.7 3 1 3 C0.67 2.01 0.34 1.02 0 0 Z " fill="#E2E2E2" transform="translate(376,772)"/>
<path d="M0 0 C1.093125 0.226875 2.18625 0.45375 3.3125 0.6875 C-0.3316774 3.1169516 -2.39991272 2.84929575 -6.6875 2.6875 C-4.58035839 -0.41123767 -3.86755884 -0.32775922 0 0 Z " fill="#171516" transform="translate(656.6875,416.3125)"/>
<path d="M0 0 C1.32 0 2.64 0 4 0 C3.01 2.97 2.02 5.94 1 9 C0.67 9 0.34 9 0 9 C0 6.03 0 3.06 0 0 Z " fill="#E5E5E5" transform="translate(601,343)"/>
<path d="M0 0 C-1.65 1.98 -3.3 3.96 -5 6 C-5.66 5.67 -6.32 5.34 -7 5 C-6.67 4.34 -6.34 3.68 -6 3 C-6.66 2.34 -7.32 1.68 -8 1 C-5.07175348 0.02391783 -3.04386724 -0.08226668 0 0 Z " fill="#1B1B1B" transform="translate(640,319)"/>
<path d="M0 0 C0.99 0 1.98 0 3 0 C3.5625 1.9375 3.5625 1.9375 4 4 C3 5 3 5 0.4375 5.0625 C-0.7690625 5.0315625 -0.7690625 5.0315625 -2 5 C-1.34 3.35 -0.68 1.7 0 0 Z " fill="#CFCFCF" transform="translate(745,760)"/>
<path d="M0 0 C1.32 0.66 2.64 1.32 4 2 C4 2.99 4 3.98 4 5 C2.02 5.33 0.04 5.66 -2 6 C-1.34 5.67 -0.68 5.34 0 5 C-0.33 4.01 -0.66 3.02 -1 2 C-0.67 1.34 -0.34 0.68 0 0 Z " fill="#222122" transform="translate(389,691)"/>
<path d="M0 0 C0 0.99 0 1.98 0 3 C-0.99 3 -1.98 3 -3 3 C-3 3.66 -3 4.32 -3 5 C-3.66 5 -4.32 5 -5 5 C-5 5.66 -5 6.32 -5 7 C-5.66 6.67 -6.32 6.34 -7 6 C-5.81636731 2.44910192 -3.99368042 0 0 0 Z " fill="#161517" transform="translate(549,541)"/>
<path d="M0 0 C0.66 0 1.32 0 2 0 C2.33 2.31 2.66 4.62 3 7 C2.01 7.495 2.01 7.495 1 8 C-0.42944945 5.64561267 -1.08661261 4.51967567 -0.625 1.75 C-0.41875 1.1725 -0.2125 0.595 0 0 Z " fill="#141414" transform="translate(603,385)"/>
<path d="M0 0 C0.66 1.32 1.32 2.64 2 4 C0.35 5.65 -1.3 7.3 -3 9 C-2.30058404 5.85262818 -1.23921302 2.97411124 0 0 Z " fill="#E5E5E5" transform="translate(610,331)"/>
<path d="M0 0 C0.33 0.99 0.66 1.98 1 3 C-0.4375 5.1875 -0.4375 5.1875 -2 7 C-2.66 6.34 -3.32 5.68 -4 5 C-2.25 1.125 -2.25 1.125 0 0 Z " fill="#181818" transform="translate(252,283)"/>
<path d="M0 0 C0.66 0.33 1.32 0.66 2 1 C1.67 1.66 1.34 2.32 1 3 C0.34 3 -0.32 3 -1 3 C-0.67 3.99 -0.34 4.98 0 6 C-0.99 6 -1.98 6 -3 6 C-3 5.34 -3 4.68 -3 4 C-3.66 3.67 -4.32 3.34 -5 3 C-2.625 1.4375 -2.625 1.4375 0 0 Z " fill="#D1D1D1" transform="translate(406,688)"/>
<path d="M0 0 C0.33 0.66 0.66 1.32 1 2 C0.21625 2.45375 -0.5675 2.9075 -1.375 3.375 C-4.03698031 4.88428742 -4.03698031 4.88428742 -6 7 C-6.66 6.34 -7.32 5.68 -8 5 C-4.04 2.525 -4.04 2.525 0 0 Z " fill="#222222" transform="translate(491,461)"/>
<path d="M0 0 C0.99 0 1.98 0 3 0 C1.63016497 3.16115776 1.0109362 3.9927092 -2 6 C-1.125 1.125 -1.125 1.125 0 0 Z " fill="#333132" transform="translate(687,402)"/>
<path d="M0 0 C0.33 0.66 0.66 1.32 1 2 C1.66 2.33 2.32 2.66 3 3 C0.525 4.485 0.525 4.485 -2 6 C-2.33 4.68 -2.66 3.36 -3 2 C-2.01 1.34 -1.02 0.68 0 0 Z " fill="#1C1C1B" transform="translate(271,256)"/>
<path d="" fill="#FFFFFF" transform="translate(0,0)"/>
</svg>
