<?xml version="1.0"?><svg width="640" height="480" xmlns="http://www.w3.org/2000/svg" xmlns:xlink="http://www.w3.org/1999/xlink">
 <defs>
  <filter color-interpolation-filters="sRGB" id="filter9518-1">
   <feGaussianBlur stdDeviation="0.713761" id="feGaussianBlur9520-0"/>
  </filter>
  <radialGradient xlink:href="#linearGradient9498-0" id="radialGradient6353" gradientUnits="userSpaceOnUse" gradientTransform="matrix(2.030350685119629,0,0,2.625302791595459,455.6938781738281,675.2113037109375)" cx="103.59114" cy="94.287537" fx="103.59114" fy="94.287537" r="25.809397"/>
  <linearGradient id="linearGradient9498-0">
   <stop offset="0" id="stop9500-8" stop-color="#ffffff"/>
   <stop offset="1" id="stop9502-8" stop-opacity="0" stop-color="#ffffff"/>
  </linearGradient>
  <radialGradient xlink:href="#linearGradient9498-0" id="radialGradient6355" gradientUnits="userSpaceOnUse" gradientTransform="matrix(11.757230758666992,0,0,4.087393760681152,-964.7745971679688,-47.3289909362793)" cx="103.59114" cy="94.287537" fx="103.59114" fy="94.287537" r="25.809397"/>
  <linearGradient xlink:href="#linearGradient9356-9" id="linearGradient6269" x1="0.499999" y1="-0.011919" x2="0.499999" y2="1.011925"/>
  <linearGradient id="linearGradient9356-9">
   <stop offset="0" id="stop9358-3" stop-color="#f9f8f8"/>
   <stop id="stop9364-4" offset="0.070067" stop-color="#ececec"/>
   <stop offset="0.933283" id="stop9366-3" stop-color="#e8e7e7"/>
   <stop offset="1" id="stop9360-1" stop-color="#b4b3b4"/>
  </linearGradient>
  <linearGradient xlink:href="#linearGradient9376-8" id="linearGradient6271" x1="0.29096" y1="0.815" x2="0.305195" y2="1.216345"/>
  <linearGradient id="linearGradient9376-8">
   <stop offset="0" id="stop9378-8" stop-color="#dad9d9"/>
   <stop id="stop9384-9" offset="0.27966" stop-color="#dad9d9"/>
   <stop offset="1" id="stop9380-8" stop-color="#000000"/>
  </linearGradient>
 </defs>
 <metadata id="metadata7224">image/svg+xml</metadata>
 <g>
  <title>Layer 1</title>
  <rect id="rect10731" width="297.14285" height="297.14285" x="3.012953" y="2.017151" ry="37.142857" stroke-miterlimit="4" stroke-width="1.771654" stroke="url(#linearGradient6271)" fill="url(#linearGradient6269)"/>
  <path d="m182.86853,52.957001c0,26.558197 -39.621613,48.087868 -88.497391,48.087868c-48.875721,0 -88.497339,-21.529671 -88.497339,-48.087868c0,-26.558201 39.621618,-48.087851 88.497339,-48.087851c48.875778,0 88.497391,21.52965 88.497391,48.087851z" id="path10733" filter="url(#filter9518-1)" fill="url(#radialGradient6355)" opacity="0.763265"/>
  <path id="path10735" d="m293.781647,258.413513c0,21.284576 -16.465118,38.539124 -36.775909,38.539124c-20.31076,0 -36.775894,-17.254547 -36.775894,-38.539124c0,-21.284592 16.465134,-38.539124 36.775894,-38.539124c20.310791,0 36.775909,17.254532 36.775909,38.539124z" filter="url(#filter9518-1)" fill="url(#radialGradient6353)" opacity="0.763265"/>
  <path d="m180.102585,150.588776c0,15.750137 -12.768036,28.518188 -28.518204,28.518188c-15.750183,0 -28.518234,-12.768051 -28.518234,-28.518188c0,-15.750198 12.768051,-28.518219 28.518234,-28.518219c15.750168,0 28.518204,12.768021 28.518204,28.518219z" id="path10737" fill="#000000"/>
  <path d="m92.102592,54.588772c0,15.750141 -12.768044,28.518185 -28.518211,28.518185c-15.750172,0 -28.518223,-12.768044 -28.518223,-28.518185c0,-15.750191 12.768051,-28.518211 28.518223,-28.518211c15.750168,0 28.518211,12.768021 28.518211,28.518211z" id="path10743" fill="#000000"/>
  <path id="path10745" d="m269.10257,54.588772c0,15.750141 -12.768036,28.518185 -28.518204,28.518185c-15.750168,0 -28.518219,-12.768044 -28.518219,-28.518185c0,-15.750191 12.768051,-28.518211 28.518219,-28.518211c15.750168,0 28.518204,12.768021 28.518204,28.518211z" fill="#000000"/>
  <path d="m93.102592,238.588806c0,15.750137 -12.768044,28.518188 -28.518211,28.518188c-15.750172,0 -28.518223,-12.768051 -28.518223,-28.518188c0,-15.750198 12.768051,-28.518219 28.518223,-28.518219c15.750168,0 28.518211,12.768021 28.518211,28.518219z" id="path10747" fill="#000000"/>
  <path id="path10749" d="m268.10257,238.588806c0,15.750137 -12.768036,28.518188 -28.518204,28.518188c-15.750168,0 -28.518219,-12.768051 -28.518219,-28.518188c0,-15.750198 12.768051,-28.518219 28.518219,-28.518219c15.750168,0 28.518204,12.768021 28.518204,28.518219z" fill="#000000"/>
  <path id="path10751" d="m123.191544,153.73349c-0.098022,0.958984 -0.096001,1.869995 -0.096001,2.854004c0,15.75 12.691002,28.53595 28.441002,28.53595c15.75,0 28.53598,-12.78595 28.53598,-28.53595c0,-0.984009 0.002014,-1.89502 -0.095001,-2.854004c-1.587982,14.245972 -13.769989,25.302002 -28.440002,25.302002c-14.669983,0 -26.757988,-11.05603 -28.345978,-25.302002l0,0z" fill="#ffffff"/>
  <path id="path10757" d="m211.191544,241.73349c-0.098022,0.958984 -0.096008,1.869995 -0.096008,2.854004c0,15.75 12.69101,28.53595 28.44101,28.53595c15.75,0 28.535965,-12.78595 28.535965,-28.53595c0,-0.984009 0.002014,-1.89502 -0.094971,-2.854004c-1.588013,14.245972 -13.770004,25.302002 -28.440018,25.302002c-14.669983,0 -26.757996,-11.05603 -28.345978,-25.302002l0,0z" fill="#ffffff"/>
  <path d="m35.191528,241.73349c-0.097988,0.958984 -0.095989,1.869995 -0.095989,2.854004c0,15.75 12.69099,28.53595 28.44099,28.53595c15.750008,0 28.536003,-12.78595 28.536003,-28.53595c0,-0.984009 0.002007,-1.89502 -0.095009,-2.854004c-1.587982,14.245972 -13.769981,25.302002 -28.439983,25.302002c-14.670002,0 -26.758011,-11.05603 -28.346012,-25.302002l0,0z" id="path10759" fill="#ffffff"/>
  <path id="path10761" d="m35.191528,57.733459c-0.097988,0.959011 -0.095989,1.870029 -0.095989,2.854c0,15.750004 12.69099,28.536007 28.44099,28.536007c15.750008,0 28.536003,-12.786003 28.536003,-28.536007c0,-0.983971 0.002007,-1.894989 -0.095009,-2.854c-1.587982,14.247009 -13.769981,25.302002 -28.439983,25.302002c-14.670002,0 -26.758011,-11.054993 -28.346012,-25.302002l0,0z" fill="#ffffff"/>
  <path d="m211.191544,57.733459c-0.098022,0.959011 -0.096008,1.870029 -0.096008,2.854c0,15.750004 12.69101,28.536007 28.44101,28.536007c15.75,0 28.535965,-12.786003 28.535965,-28.536007c0,-0.983971 0.002014,-1.894989 -0.094971,-2.854c-1.588013,14.247009 -13.770004,25.302002 -28.440018,25.302002c-14.669983,0 -26.757996,-11.054993 -28.345978,-25.302002l0,0z" id="path10763" fill="#ffffff"/>
 </g>
</svg>